<?xml version="1.0" encoding="UTF-8"?>
<svg version="1.1" xmlns="http://www.w3.org/2000/svg" width="991" height="1135">
<path d="M0 0 C3.22618733 2.0790985 4.8669302 3.80039529 7 7 C7.20758411 9.58534239 7.30090275 12.06597592 7.30297852 14.65258789 C7.31141785 15.43009903 7.31985718 16.20761017 7.32855225 17.00868225 C7.35435362 19.58001306 7.36647508 22.15122908 7.37890625 24.72265625 C7.39507714 26.50720636 7.4122567 28.29174759 7.43040466 30.07627869 C7.47612085 34.77560327 7.5109122 39.47493961 7.54260254 44.17437744 C7.59445319 51.70051581 7.65952601 59.22652381 7.73081779 66.75250053 C7.75369656 69.38601908 7.76993774 72.01952097 7.78553772 74.65309143 C7.79894141 76.26099837 7.81255595 77.86890357 7.82641602 79.47680664 C7.82902939 80.21296204 7.83164276 80.94911743 7.83433533 81.70758057 C7.81427984 85.47952728 7.81427984 85.47952728 9 89 C9.18301028 90.48221361 9.31367589 91.97106328 9.41723633 93.4609375 C9.48450424 94.39341309 9.55177216 95.32588867 9.62107849 96.28662109 C9.6906929 97.30578613 9.76030731 98.32495117 9.83203125 99.375 C9.98970795 101.56252624 10.14776389 103.75002518 10.30615234 105.9375 C10.3883905 107.08992188 10.47062866 108.24234375 10.55535889 109.4296875 C12.96435422 142.8777271 16.7983104 175.69955383 22.60101318 208.72180176 C23.14283173 211.81556328 23.67662795 214.91069061 24.21069336 218.00579834 C24.8655836 221.79623873 25.52622423 225.58566928 26.1875 229.375 C26.30792664 230.06770996 26.42835327 230.76041992 26.5524292 231.47412109 C28.62591309 243.36575244 31.11234383 255.13855036 33.796875 266.90625 C38.64493706 288.15896647 42.87020339 309.47697786 46.63934326 330.94677734 C46.97666963 332.86717996 47.31660709 334.78712342 47.65673828 336.70703125 C48.84754644 343.46046163 49.96947125 350.22027628 51 357 C51.11714355 357.7434668 51.23428711 358.48693359 51.35498047 359.25292969 C56.60813369 393.55063437 52.25841621 429.22628831 43.61523438 462.5859375 C42.89628748 465.40694818 42.20516464 468.23415927 41.515625 471.0625 C41.25499268 472.12533203 40.99436035 473.18816406 40.72583008 474.28320312 C40.21196109 476.38005595 39.70122725 478.47768034 39.1940918 480.57617188 C37.99030307 485.45419622 36.6510199 490.11999991 34.81030273 494.79199219 C32.93937784 499.89010751 31.54693735 505.15435991 30.0625 510.375 C29.70841064 511.61781738 29.35432129 512.86063477 28.98950195 514.14111328 C26.5163677 522.92726311 24.29955172 531.71429211 22.48510742 540.65966797 C22.10473877 542.49470263 21.70835212 544.32641825 21.3059082 546.15673828 C16.62282677 567.50143529 14.62050476 588.12723481 14.6875 609.9375 C14.69004791 610.87394348 14.69259583 611.81038696 14.69522095 612.77520752 C14.76378371 627.41231374 15.03950411 642.03669184 17.5 656.5 C17.66234131 657.46703857 17.82468262 658.43407715 17.99194336 659.43041992 C21.4344922 678.90952117 25.99405394 698.40531555 31.31811523 717.45629883 C32.62430506 722.32890599 33.67489905 727.25973795 34.75 732.1875 C35.00386475 733.34459473 35.25772949 734.50168945 35.51928711 735.69384766 C36.0636518 738.17543738 36.60716709 740.65721356 37.14990234 743.13916016 C37.86487976 746.38633213 38.59000894 749.63080465 39.3223114 752.87408447 C43.45072157 771.16479101 47.06343929 789.47306636 50 808 C50.1762793 809.11117187 50.35255859 810.22234375 50.53417969 811.3671875 C54.51665615 836.77135252 57.95271035 862.36146256 60 888 C60.05784668 888.67869141 60.11569336 889.35738281 60.17529297 890.05664062 C62.23200845 914.93252287 62.11148956 940.3702197 58 965 C57.78103461 966.4270503 57.56226912 967.8541313 57.34375 969.28125 C55.60969042 979.60303321 52.67308793 989.52680869 49.71679688 999.55224609 C45.79063183 1012.95951133 41.74695594 1026.97856997 41 1041 C40.88591797 1042.96646484 40.88591797 1042.96646484 40.76953125 1044.97265625 C40.42069153 1053.59329815 40.4472084 1060.89295812 46 1068 C49.33271213 1071.52074453 52.3600256 1074.45334187 57 1076 C57 1076.66 57 1077.32 57 1078 C57.721875 1078.12375 58.44375 1078.2475 59.1875 1078.375 C62 1079 62 1079 64.26171875 1079.96875 C80.51658612 1086.09041189 101.04810076 1083.26142044 117.87304688 1081.28964233 C135.33640821 1079.26797027 152.41140915 1078.38033183 170 1079 C170.87092285 1079.02755371 171.7418457 1079.05510742 172.63916016 1079.08349609 C179.28255861 1079.31619663 185.54862193 1079.8254433 191.98852539 1081.52294922 C195.15054889 1082.27286959 198.33190014 1082.55552595 201.5625 1082.875 C208.57391209 1083.62670162 215.49474639 1084.70750272 222.4375 1085.9375 C223.90751465 1086.19587646 223.90751465 1086.19587646 225.40722656 1086.45947266 C229.88939564 1087.25258616 234.36596479 1088.06660074 238.8359375 1088.92578125 C254.19483156 1091.80867511 268.23752489 1091.43560342 283.6574707 1089.08544922 C294.4726587 1087.44266137 301.42271431 1087.48298724 311.62890625 1091.8203125 C316.99215164 1093.69713765 322.35609137 1093.89839117 328 1094 C324.68964087 1085.51720474 317.64176301 1080.99148638 309.78515625 1077.04296875 C308 1076 308 1076 307 1074 C306.796875 1072.125 306.796875 1072.125 306.75 1070 C306.72421875 1069.29875 306.6984375 1068.5975 306.671875 1067.875 C306.78015625 1067.25625 306.8884375 1066.6375 307 1066 C311.82925857 1062.78049428 316.37440845 1062.96220808 322 1064 C333.88977037 1069.05624128 341.24581968 1077.77171009 347 1089 C347.58265625 1088.83628906 348.1653125 1088.67257812 348.765625 1088.50390625 C351.85736768 1087.8066426 354.84286393 1087.93928584 358 1088 C357.93539329 1084.76966439 357.79714442 1082.08507619 355.83203125 1079.41015625 C349.45715729 1073.47601431 340.86380615 1070.59943473 332.9375 1067.3125 C330.2739994 1066.12242526 328.22490319 1064.86891868 326 1063 C326.36337039 1056.58045641 326.36337039 1056.58045641 329.125 1054.0625 C337.77479962 1050.86583492 346.36044319 1054.67933679 354.29125977 1058.30883789 C360.99892034 1061.52290665 366.21384883 1065.2518084 371 1071 C372.2375 1072.485 372.2375 1072.485 373.5 1074 C373.995 1074.66 374.49 1075.32 375 1076 C377.43717258 1075.72965366 377.43717258 1075.72965366 380 1075 C381.96055709 1072.05916436 382.31214545 1071.31872048 382.375 1068 C382.40335938 1067.319375 382.43171875 1066.63875 382.4609375 1065.9375 C381.79360952 1063.13246035 380.39838304 1062.52638307 378 1061 C375.54034992 1060.19456811 375.54034992 1060.19456811 372.859375 1059.71875 C371.87066406 1059.51636719 370.88195312 1059.31398438 369.86328125 1059.10546875 C368.83589844 1058.90566406 367.80851562 1058.70585938 366.75 1058.5 C360.6400549 1057.29357772 354.78460044 1056.08708888 348.99804688 1053.75878906 C345.04937317 1052.25921943 340.9444529 1051.24321488 336.875 1050.125 C315.70908834 1044.16271956 296.25837236 1035.53953534 277 1025 C276.01644531 1024.46503906 275.03289062 1023.93007812 274.01953125 1023.37890625 C272.26608789 1022.42318897 270.5147534 1021.46359169 268.765625 1020.5 C266.76678282 1019.41588221 264.75451273 1018.35639892 262.734375 1017.3125 C254.08292778 1012.8334581 245.80454954 1007.88703396 237.58447266 1002.65600586 C232.57907999 999.4945787 227.52882395 996.72024497 222.20776367 994.12817383 C219.45340854 992.72069013 217.02322106 991.05764801 214.5625 989.1875 C213.64984375 988.50300781 212.7371875 987.81851563 211.796875 987.11328125 C210.87390625 986.41589844 209.9509375 985.71851563 209 985 C207.10675007 983.62144506 205.21094563 982.24639098 203.3125 980.875 C202.40242187 980.21113281 201.49234375 979.54726563 200.5546875 978.86328125 C199.00129942 977.73030554 197.44481558 976.60153738 195.8828125 975.48046875 C174.5906615 959.9602864 163.9845562 938.59093699 158.75 913.1875 C158.59901855 912.46755859 158.44803711 911.74761719 158.29248047 911.00585938 C154.49158256 891.03721874 154.63049555 870.80027496 154.6875 850.5625 C154.68903706 849.80096367 154.69057411 849.03942734 154.69215775 848.25481415 C154.79717513 798.12165816 158.90096336 748.5298477 163.47524452 698.63098526 C166.57687735 664.7803325 168.74254642 631.00019343 169.75390625 597.0234375 C169.89039503 593.08606714 170.13318133 589.17905264 170.46875 585.25390625 C170.97465399 579.02882505 171.23485564 572.80642523 171.46484375 566.56640625 C171.50368179 565.51976807 171.54251984 564.47312988 171.58253479 563.39477539 C171.74243058 559.03261249 171.89935492 554.67036929 172.04956055 550.30786133 C172.44962832 538.8065638 172.94768406 527.33918322 173.98046875 515.875 C174.06014389 514.9877272 174.13981903 514.10045441 174.22190857 513.18629456 C175.57067849 499.16015159 180.04700778 487.20302627 185.54968262 474.31445312 C189.44690995 465.16211679 192.81245775 455.99439012 195.625 446.4375 C195.94307617 445.36330811 196.26115234 444.28911621 196.58886719 443.18237305 C199.51151348 432.89764825 201.15754471 422.51746879 202.0625 411.875 C202.19035889 410.40921509 202.19035889 410.40921509 202.32080078 408.91381836 C202.86921346 401.8388721 203.09776468 394.79260281 203.20703125 387.69921875 C203.22236404 386.78754944 203.23769684 385.87588013 203.25349426 384.93658447 C203.3274423 380.36156555 203.37881882 375.78798862 203.39477539 371.21240234 C203.49962122 359.93129351 204.93135812 349.8483272 208 339 C208.27779297 337.96705811 208.55558594 336.93411621 208.84179688 335.86987305 C209.55386659 333.25826078 210.29959831 330.65965587 211.0625 328.0625 C211.42698242 326.80083008 211.42698242 326.80083008 211.79882812 325.51367188 C212.77148969 322.15708647 213.75233478 318.80433113 214.78076172 315.46435547 C216.18058086 310.90989054 217.39383748 306.38836517 218.38330078 301.72900391 C219.19972868 298.11616499 220.13023787 294.53449438 221.05859375 290.94921875 C226.80660146 268.78130698 226.80660146 268.78130698 230.5625 246.20703125 C231 243 231 243 232 242 C232.46010729 239.10567642 232.86818384 236.21750686 233.25 233.3125 C234.68602969 222.7480896 236.43647645 212.24623173 238.28613281 201.74731445 C239.4801845 194.7998092 240.3135193 187.95125024 240.78027344 180.91796875 C241.07635817 176.98596346 241.6820347 173.13928934 242.3125 169.25 C244.97491124 151.59981896 246.40803594 133.7718295 248 116 C248.06896484 115.23292725 248.13792969 114.46585449 248.20898438 113.67553711 C248.66431433 108.57730678 249.09353044 103.47735637 249.5 98.375 C249.55882355 97.63866333 249.61764709 96.90232666 249.67825317 96.14367676 C250.58535409 84.55981747 251.22670889 72.96585659 251.81090927 61.36213303 C251.93361412 58.93709734 252.05859475 56.51218974 252.18435669 54.08731079 C252.26874815 52.45745903 252.35312922 50.82760674 252.4375 49.19775391 C252.50055989 47.98165656 252.50055989 47.98165656 252.56489372 46.74099159 C252.81626302 41.85527733 253.04916276 36.96908388 253.26910305 32.08185959 C253.411376 29.00161065 253.56890275 25.92226793 253.73008919 22.84295654 C253.80263542 21.39241015 253.86858338 19.94151709 253.92757988 18.49035645 C254.01000357 16.48156316 254.11760093 14.47385054 254.22631836 12.46630859 C254.27944687 11.33373627 254.33257538 10.20116394 254.38731384 9.03427124 C255.12211794 5.39522224 256.44758235 3.65284895 259 1 C262.15796107 -0.57898053 265.60670636 -0.81928171 269 0 C271.7058579 1.64519257 272.59492408 2.27413216 274 5 C274.74788881 9.59493684 274.61057352 14.17343834 274.5 18.8125 C274.48154485 20.2706637 274.46365927 21.72883469 274.44628906 23.18701172 C274.12533903 43.0289966 272.64033893 62.83965388 271.23754883 82.62780762 C270.99225093 86.1100042 270.75228037 89.59253426 270.51367188 93.07519531 C266.93163836 145.28018045 266.93163836 145.28018045 264.38867188 165.85449219 C263.96810818 169.25809939 263.57066135 172.66408899 263.171875 176.0703125 C260.61532906 197.33220652 257.09004694 218.41982751 253.43029785 239.51525879 C253.02091957 241.87920063 252.61491182 244.2436947 252.20996094 246.60839844 C244.4157449 292.00751962 244.4157449 292.00751962 238 311 C237.46992549 312.81522272 236.95313122 314.63437255 236.44921875 316.45703125 C236.1651416 317.47933838 235.88106445 318.50164551 235.58837891 319.55493164 C235.29108887 320.6299292 234.99379883 321.70492676 234.6875 322.8125 C231.17788069 335.46753642 231.17788069 335.46753642 229.46484375 341.140625 C229.23643799 341.89754639 229.00803223 342.65446777 228.77270508 343.43432617 C228.16911585 345.41754792 227.5575274 347.39833023 226.9453125 349.37890625 C224.95534168 357.00164571 224.83397752 364.53503568 224.75390625 372.3671875 C224.72097268 374.57422279 224.68776095 376.78125394 224.65429688 378.98828125 C224.60694994 382.43307729 224.56246744 385.87785598 224.52319336 389.32275391 C224.48322422 392.67106661 224.43175367 396.01905662 224.37890625 399.3671875 C224.3704921 400.38416718 224.36207794 401.40114685 224.35340881 402.44894409 C224.25693252 408.09804728 223.71718125 413.35283442 222.46537781 418.86669922 C221.79726884 421.92932353 221.54299238 425.00672393 221.25 428.125 C218.57927728 451.03318667 210.27768003 472.05686905 200.765625 492.90234375 C191.31154334 514.13681615 193.59687909 541.44102965 192.79672241 564.29315186 C191.55345585 599.58153873 189.62354756 634.78524762 187 670 C186.91361897 671.16088512 186.91361897 671.16088512 186.82549286 672.34522247 C185.86106788 685.29412063 184.87457434 698.24127091 183.875 711.1875 C183.81054562 712.02442131 183.74609123 712.86134262 183.67968369 713.72362518 C181.1682032 746.31524526 181.1682032 746.31524526 179.68029785 758.81921387 C176.24428376 788.31720624 175.68387054 818.24405832 175.57245636 847.91901016 C175.56269776 849.89740767 175.54458826 851.87575836 175.52630615 853.85409546 C175.26373858 886.62884498 176.92580179 925.39135055 199.4921875 951.4765625 C203.90751154 955.91939635 208.83723225 959.47785958 214 963 C214.97066406 963.66644531 215.94132813 964.33289063 216.94140625 965.01953125 C219.94121438 967.04470132 222.96578381 969.02680532 226 971 C227.05574219 971.69738281 228.11148438 972.39476562 229.19921875 973.11328125 C248.11253313 985.53359099 268.15341682 996.16576113 288 1007 C288.91249512 1007.49902832 289.82499023 1007.99805664 290.76513672 1008.51220703 C298.34369486 1012.64363149 305.89467635 1016.58816267 313.94482422 1019.74389648 C316.99752191 1020.99898116 319.93464113 1022.40426385 322.90234375 1023.84765625 C329.54629841 1026.92700933 336.31699705 1029.18855788 343.34643555 1031.18798828 C345.30588132 1031.74810801 347.25716195 1032.33190793 349.20898438 1032.91796875 C357.23093041 1035.2683758 365.04350684 1036.70376592 373.36181641 1037.54101562 C382.21255605 1038.65760337 391.20287436 1040.79319081 397 1048 C402.58998824 1056.41424931 404.15444277 1063.89021966 403 1074 C400.00483995 1083.26178643 394.76806 1089.78957317 386.26464844 1094.52246094 C383.24616625 1095.98514833 380.20202859 1097.35258435 377.125 1098.6875 C376.10019531 1099.14705078 375.07539062 1099.60660156 374.01953125 1100.08007812 C371.02412581 1101.41411829 368.01489308 1102.71071658 365 1104 C364.10764648 1104.39719238 363.21529297 1104.79438477 362.29589844 1105.20361328 C356.95817418 1107.49689558 352.80884064 1108.45315451 347 1108.5 C341.13048347 1108.66604007 336.34554266 1109.5279937 331.015625 1112.0625 C322.78407093 1115.8911298 315.02347364 1113.68277053 306.83984375 1110.94140625 C302.47038287 1109.8701549 298.59583168 1109.74038981 294.125 1109.8125 C293.37347656 1109.81314453 292.62195313 1109.81378906 291.84765625 1109.81445312 C288.17393654 1109.84280945 284.59934645 1110.01792248 280.95703125 1110.5 C274.58690665 1111.26754326 268.17782419 1111.18601513 261.77124023 1111.18530273 C259.57060465 1111.18749194 257.37046944 1111.20571318 255.16992188 1111.22460938 C248.39785625 1111.25181852 241.92291119 1111.09608474 235.29663086 1109.52807617 C231.08300677 1108.55921587 226.78495692 1108.1109344 222.5 1107.5625 C215.59601064 1106.65573341 208.73263147 1105.64401334 201.875 1104.4375 C176.0732845 1100.06480914 150.11633662 1099.71209702 124.125 1102.5 C112.51323391 1103.74096865 101.05139855 1104.33377926 89.375 1104.375 C88.65137268 1104.38249268 87.92774536 1104.38998535 87.18218994 1104.39770508 C66.88868684 1104.57176377 48.21194316 1099.95567924 33.1875 1085.6875 C22.07675448 1073.88233289 18.38217811 1059.94533438 18.59545898 1044.04248047 C18.83150921 1037.23465518 19.87626371 1030.75948653 21.49072266 1024.13769531 C22.07628396 1021.67979754 22.6076685 1019.2128566 23.13671875 1016.7421875 C25.24279773 1007.01065015 27.58731242 997.45874656 30.69140625 987.99609375 C31.12791226 986.66416343 31.56406194 985.33211632 32 984 C32.31791504 983.04222656 32.63583008 982.08445312 32.96337891 981.09765625 C47.33159066 936.44711652 39.99056145 885.30050547 33.03475952 839.8469696 C32.19033122 834.31750657 31.40017806 828.78173756 30.625 823.2421875 C26.16767131 791.67211211 19.68423724 760.73964776 11.734375 729.87060547 C9.04018144 719.33924647 6.67281701 708.78481825 4.80859375 698.07421875 C3.99692303 693.71155854 2.8687132 689.43421932 1.77807617 685.13452148 C0.54707964 680.17538612 -0.52789343 675.19081822 -1.5625 670.1875 C-1.77068359 669.24197266 -1.97886719 668.29644531 -2.19335938 667.32226562 C-6.07860368 648.43193984 -6.37797557 629.02684508 -6.3125 609.8125 C-6.31134186 608.74992981 -6.31018372 607.68735962 -6.30899048 606.59259033 C-6.27312659 589.89254698 -5.66719456 573.51608939 -3 557 C-2.8772168 556.23800293 -2.75443359 555.47600586 -2.62792969 554.69091797 C-1.90733245 550.41994011 -0.99797982 546.21369259 0 542 C0.30191946 540.65390062 0.60264233 539.30753245 0.90234375 537.9609375 C3.06889521 528.3602059 5.61281396 518.88036078 8.31152344 509.41699219 C9.03835082 506.86536414 9.7577246 504.31170206 10.4765625 501.7578125 C12.71729722 493.82578474 14.99430108 485.9151724 17.5 478.0625 C24.96361495 454.42721592 30.94654448 430.35600144 31.2734375 405.4453125 C31.28582962 404.5577124 31.29822174 403.6701123 31.31098938 402.75561523 C31.34328245 399.87870426 31.36220099 397.00206209 31.375 394.125 C31.37956207 393.13755798 31.38412415 392.15011597 31.38882446 391.13275146 C31.42708497 367.84454506 28.41175794 345.5506029 23.76098633 322.75927734 C22.97807909 318.89171058 22.23293434 315.01787785 21.5 311.140625 C21.25009764 309.82680434 21.00009767 308.51300224 20.75 307.19921875 C20.37284545 305.21670191 19.99699554 303.23398013 19.625 301.25048828 C18.24196659 293.88691587 16.71181864 286.65523338 14.66064453 279.44873047 C13.68010323 275.81427767 13.03955895 272.15034379 12.4375 268.4375 C12.18954838 266.97773762 11.94085293 265.51810139 11.69140625 264.05859375 C11.5742627 263.36620605 11.45711914 262.67381836 11.33642578 261.96044922 C10.8800092 259.3007793 10.38813211 256.64928208 9.875 254 C9.65457031 252.8553125 9.65457031 252.8553125 9.4296875 251.6875 C9.14705873 249.97680585 9.14705873 249.97680585 8 249 C7.59367538 246.95231292 7.24240291 244.89366038 6.9140625 242.83203125 C6.70523437 241.54490234 6.49640625 240.25777344 6.28125 238.93164062 C6.06206926 237.55866244 5.84332093 236.18561517 5.625 234.8125 C4.20110209 225.86713519 2.61040725 217.0030254 0.66503906 208.15209961 C-0.22957497 203.91187869 -0.88282309 199.67124064 -1.4375 195.375 C-1.55746338 194.46717773 -1.67742676 193.55935547 -1.80102539 192.62402344 C-5.46212196 164.28810734 -8.32416265 135.8266931 -10.79431152 107.36444092 C-10.92454048 105.86742622 -11.05626917 104.37054059 -11.19006348 102.87384033 C-13.02081308 82.37233085 -13.30024577 61.81498627 -13.46032715 41.24441528 C-13.48396171 38.25850646 -13.52048584 35.27318917 -13.56799316 32.28756714 C-13.62302705 28.73200699 -13.64709271 25.17748448 -13.64839935 21.62151146 C-13.65607296 19.65474959 -13.69307861 17.68817155 -13.73077393 15.72175598 C-13.68219786 5.90686204 -13.68219786 5.90686204 -10.18164062 2.18847656 C-6.33885055 -0.45476854 -4.5705459 -0.83100835 0 0 Z " fill="#070706" transform="translate(331,10)"/>
<path d="M0 0 C3.03978021 0.68164768 4.80055419 2.23591662 6.93359375 4.43359375 C8.16204957 6.89050538 8.06288577 8.52090553 8.06640625 11.265625 C8.06833984 12.71098633 8.06833984 12.71098633 8.0703125 14.18554688 C8.06644531 15.19552734 8.06257813 16.20550781 8.05859375 17.24609375 C8.06439453 18.74366211 8.06439453 18.74366211 8.0703125 20.27148438 C8.06902344 21.23892578 8.06773437 22.20636719 8.06640625 23.203125 C8.06527832 24.08589111 8.06415039 24.96865723 8.06298828 25.87817383 C7.93359375 28.43359375 7.93359375 28.43359375 7.43798828 30.88061523 C6.41336348 36.0667244 6.706134 41.4148114 6.68359375 46.68359375 C6.66296875 47.87339844 6.64234375 49.06320312 6.62109375 50.2890625 C6.58414894 58.64782669 6.90815077 65.89161172 12.49609375 72.43359375 C15.96097279 75.27657143 17.84400352 75.5584073 22.24609375 75.80859375 C26.53963522 76.16826215 29.53573134 76.58377366 32.93359375 79.43359375 C35.38222625 83.1065425 35.76542813 86.1662834 34.93359375 90.43359375 C32.39905718 93.6531402 30.8206207 95.1379181 26.93359375 96.43359375 C17.35871366 97.34716029 9.3743809 95.60628935 1.68359375 89.74609375 C-6.7687452 82.44454274 -13.17131331 73.40973705 -14.30908203 62 C-14.85715476 51.42357146 -14.14002131 40.86568863 -12.84277344 30.36816406 C-12.35010377 26.37770906 -11.99430344 22.44695393 -11.88671875 18.42578125 C-11.862146 17.60948242 -11.83757324 16.79318359 -11.81225586 15.95214844 C-11.77450766 14.40368245 -11.75581351 12.85458441 -11.76000977 11.30566406 C-11.65501713 7.40336285 -11.18491999 5.58723763 -8.7734375 2.4609375 C-5.44802678 -0.02952161 -3.9847967 -0.248579 0 0 Z " fill="#070806" transform="translate(422.06640625,924.56640625)"/>
<path d="M0 0 C9.80129548 4.16809688 18.1243586 11.51958616 23 21 C23 21.66 23 22.32 23 23 C21.35 23 19.7 23 18 23 C17.505 21.02 17.505 21.02 17 19 C15.35 19 13.7 19 12 19 C11.814375 20.258125 11.62875 21.51625 11.4375 22.8125 C11.33308594 23.52019531 11.22867188 24.22789063 11.12109375 24.95703125 C10.86095201 27.2025342 10.86095201 27.2025342 12 30 C8.81175432 31.59412284 5.37103338 31.10174735 1.875 31.0625 C1.12089844 31.05798828 0.36679687 31.05347656 -0.41015625 31.04882812 C-2.27347127 31.03703499 -4.13674555 31.01909942 -6 31 C-6 30.67 -6 30.34 -6 30 C-2.04 30 1.92 30 6 30 C2.68964087 21.51720474 -4.35823699 16.99148638 -12.21484375 13.04296875 C-14 12 -14 12 -15 10 C-15.203125 8.125 -15.203125 8.125 -15.25 6 C-15.27578125 5.29875 -15.3015625 4.5975 -15.328125 3.875 C-15.21984375 3.25625 -15.1115625 2.6375 -15 2 C-10.17074143 -1.21950572 -5.62559155 -1.03779192 0 0 Z " fill="#0B0C09" transform="translate(653,1074)"/>
<path d="M0 0 C2.4375 0.375 2.4375 0.375 5 1 C5.33 1.66 5.66 2.32 6 3 C5.34 3 4.68 3 4 3 C3.49874717 6.33142278 3.49874717 6.33142278 4 10 C8.32254622 14.1990449 14.23677973 15.64267696 19.80078125 17.7109375 C25.3081836 19.93003735 31.50716554 23.05181784 35 28 C35.25 31.75 35.25 31.75 35 35 C31.37 35.66 27.74 36.32 24 37 C23.18208984 35.60587891 23.18208984 35.60587891 22.34765625 34.18359375 C17.79107878 26.63146961 13.59908193 20.78460714 6 16 C5.42765625 15.58234375 4.8553125 15.1646875 4.265625 14.734375 C-0.77208379 11.32792429 -6.11510916 11.21283511 -12 11 C-11.34 10.67 -10.68 10.34 -10 10 C-10 9.01 -10 8.02 -10 7 C-11.65 7 -13.3 7 -15 7 C-15 6.34 -15 5.68 -15 5 C-10.05 5 -5.1 5 0 5 C0 4.34 0 3.68 0 3 C0 2.01 0 1.02 0 0 Z " fill="#F6F7F1" transform="translate(654,1063)"/>
<path d="M0 0 C1.61814367 0.3028327 3.22063578 0.68977417 4.8125 1.109375 C5.80636719 1.36976562 6.80023437 1.63015625 7.82421875 1.8984375 C8.87222656 2.17945313 9.92023437 2.46046875 11 2.75 C12.52560547 3.14832031 12.52560547 3.14832031 14.08203125 3.5546875 C18.66449034 4.76648028 23.19305946 6.02772795 27.671875 7.58203125 C32.87571878 9.368653 38.20012162 10.37261389 43.6015625 11.37304688 C48.3122563 12.33367471 51.58883955 13.37480595 55 17 C55.51878904 20.26837094 55.76547965 21.92593094 55 25 C52.75 28.0625 52.75 28.0625 50 30 C48.1328125 29.97265625 48.1328125 29.97265625 46 29 C44.28775279 27.16005978 42.70857294 25.31832988 41.125 23.375 C33.36138314 14.39711139 22.65467055 9.26849837 11 7 C7.14948532 6.75552288 4.64209431 6.78596856 1 8 C1 7.01 1 6.02 1 5 C0.01 5 -0.98 5 -2 5 C-1.125 1.125 -1.125 1.125 0 0 Z " fill="#F4F5EF" transform="translate(659,1057)"/>
<path d="M0 0 C3.11257569 0 5.10765685 0.17361624 8 1 C7.93941406 1.60005859 7.87882812 2.20011719 7.81640625 2.81835938 C6.20303668 18.86518133 4.75589848 34.88742724 4 51 C3.67 51 3.34 51 3 51 C2.92652344 50.04287109 2.92652344 50.04287109 2.8515625 49.06640625 C2.73941406 47.82697266 2.73941406 47.82697266 2.625 46.5625 C2.55539062 45.73878906 2.48578125 44.91507813 2.4140625 44.06640625 C2.27742188 43.38449219 2.14078125 42.70257812 2 42 C1.34 41.67 0.68 41.34 0 41 C0 27.47 0 13.94 0 0 Z " fill="#F5F6F1" transform="translate(500,505)"/>
<path d="M0 0 C2 1 2 1 3 3 C3.39091188 9.72598374 2.87412727 16.33477959 2 23 C1.34 22.01 0.68 21.02 0 20 C-0.226875 21.258125 -0.45375 22.51625 -0.6875 23.8125 C-1.50247194 27.17351568 -1.742203 27.80358323 -4.625 30 C-5.40875 30.33 -6.1925 30.66 -7 31 C-7.18490939 25.2933138 -6.65548056 20.44109258 -5.1875 14.9375 C-5.02185547 14.26912109 -4.85621094 13.60074219 -4.68554688 12.91210938 C-3.52060166 8.38860513 -1.93018041 4.25303363 0 0 Z " fill="#F2F3ED" transform="translate(533,498)"/>
<path d="M0 0 C0.33 1.32 0.66 2.64 1 4 C2.65 3.01 4.3 2.02 6 1 C6.29366149 12.82803234 5.4286661 24.26452843 4 36 C0.96011051 33.63330403 0.06603835 32.4932284 -0.45410156 28.60839844 C-0.4331543 27.2887207 -0.41220703 25.96904297 -0.390625 24.609375 C-0.38496521 23.90476135 -0.37930542 23.20014771 -0.37347412 22.47418213 C-0.35115078 20.23208572 -0.30096754 17.99161012 -0.25 15.75 C-0.22992952 14.22658565 -0.2116797 12.70314614 -0.1953125 11.1796875 C-0.15130118 7.4526017 -0.08230372 3.72645913 0 0 Z " fill="#F7F8F3" transform="translate(405,931)"/>
<path d="M0 0 C1.61814367 0.3028327 3.22063578 0.68977417 4.8125 1.109375 C5.80636719 1.36976562 6.80023437 1.63015625 7.82421875 1.8984375 C8.87222656 2.17945313 9.92023437 2.46046875 11 2.75 C12.52560547 3.14832031 12.52560547 3.14832031 14.08203125 3.5546875 C19.4906172 4.98494258 24.80554602 6.55657393 30.09716797 8.37060547 C32.39274455 9.12990704 34.6952434 9.69901848 37.0625 10.1875 C37.81660156 10.34605469 38.57070313 10.50460937 39.34765625 10.66796875 C39.89292969 10.77753906 40.43820312 10.88710937 41 11 C40.360625 11.103125 39.72125 11.20625 39.0625 11.3125 C38.381875 11.539375 37.70125 11.76625 37 12 C36.67 12.99 36.34 13.98 36 15 C33 16 33 16 30.43359375 14.890625 C28.95052734 14.07851562 28.95052734 14.07851562 27.4375 13.25 C19.83390521 9.30127324 12.71861865 6.28827603 4 7 C3.01 7.33 2.02 7.66 1 8 C1 7.01 1 6.02 1 5 C0.01 5 -0.98 5 -2 5 C-1.125 1.125 -1.125 1.125 0 0 Z " fill="#E3E5E1" transform="translate(659,1057)"/>
<path d="M0 0 C2.4375 0.375 2.4375 0.375 5 1 C5.33 1.66 5.66 2.32 6 3 C5.34 3 4.68 3 4 3 C3.49874717 6.33142278 3.49874717 6.33142278 4 10 C6.68565179 12.42935224 6.68565179 12.42935224 10 14 C10.78375 14.4125 11.5675 14.825 12.375 15.25 C12.91125 15.4975 13.4475 15.745 14 16 C11.7890625 17.17578125 11.7890625 17.17578125 9 18 C6.7109375 16.91796875 6.7109375 16.91796875 4.375 15.1875 C-1.0125739 11.62553473 -5.63079362 11.02421751 -12 11 C-11.34 10.67 -10.68 10.34 -10 10 C-10 9.01 -10 8.02 -10 7 C-11.65 7 -13.3 7 -15 7 C-15 6.34 -15 5.68 -15 5 C-10.05 5 -5.1 5 0 5 C0 4.34 0 3.68 0 3 C0 2.01 0 1.02 0 0 Z " fill="#E7E9E0" transform="translate(654,1063)"/>
<path d="M0 0 C0.66 0.33 1.32 0.66 2 1 C1.99214478 2.01368652 1.99214478 2.01368652 1.98413086 3.04785156 C1.96331993 6.11522489 1.95032671 9.18258333 1.9375 12.25 C1.92912109 13.31347656 1.92074219 14.37695312 1.91210938 15.47265625 C1.90888672 16.49746094 1.90566406 17.52226562 1.90234375 18.578125 C1.89448853 19.99206543 1.89448853 19.99206543 1.88647461 21.43457031 C1.91023565 23.96336829 1.91023565 23.96336829 2.56469727 26.19824219 C3.16684642 28.6905926 2.29319231 29.87003619 1 32 C0.34 30.68 -0.32 29.36 -1 28 C-1.66 28.33 -2.32 28.66 -3 29 C-4.98828043 20.26747235 -4.76238208 10.55997411 -2 2 C-1.34 1.34 -0.68 0.68 0 0 Z " fill="#F6F7EE" transform="translate(342,13)"/>
<path d="M0 0 C0.54372951 3.05847848 1 5.88772805 1 9 C-2.66666667 9 -6.33333333 9 -10 9 C-10.93328125 9.10699219 -11.8665625 9.21398438 -12.828125 9.32421875 C-24.07453787 10.51818724 -24.07453787 10.51818724 -29 7 C-29 6.67 -29 6.34 -29 6 C-28.14019531 5.98582031 -27.28039062 5.97164062 -26.39453125 5.95703125 C-18.2495319 5.62838896 -12.08299913 4.30280328 -4.546875 1.05859375 C-2 0 -2 0 0 0 Z " fill="#F2F4EF" transform="translate(701,1112)"/>
<path d="M0 0 C0.67482422 0.51046875 0.67482422 0.51046875 1.36328125 1.03125 C2.00652344 1.5159375 2.64976562 2.000625 3.3125 2.5 C4.03050781 3.04269531 4.74851562 3.58539062 5.48828125 4.14453125 C7.29890343 5.48208263 9.13278587 6.7883477 10.98046875 8.07421875 C12.47513672 9.12029297 12.47513672 9.12029297 14 10.1875 C14.94875 10.84105469 15.8975 11.49460937 16.875 12.16796875 C17.57625 12.77253906 18.2775 13.37710938 19 14 C19 14.99 19 15.98 19 17 C12.38888889 16.09259259 12.38888889 16.09259259 9.375 15.375 C6.66049955 14.94639467 4.64461921 15.31995506 2 16 C2 15.34 2 14.68 2 14 C2.66 14 3.32 14 4 14 C3.67 11.69 3.34 9.38 3 7 C2.34 7 1.68 7 1 7 C0.34 6.34 -0.32 5.68 -1 5 C-0.625 2.375 -0.625 2.375 0 0 Z " fill="#ECEDE5" transform="translate(515,976)"/>
<path d="M0 0 C0.66 0.33 1.32 0.66 2 1 C1.67 10.9 1.34 20.8 1 31 C0.34 30.34 -0.32 29.68 -1 29 C-1.99 29.33 -2.98 29.66 -4 30 C-4 29.34 -4 28.68 -4 28 C-4.66 28 -5.32 28 -6 28 C-5.67 28.99 -5.34 29.98 -5 31 C-5.99 31 -6.98 31 -8 31 C-7.37798054 28.45757096 -6.75248241 25.91608125 -6.125 23.375 C-5.95097656 22.66214844 -5.77695312 21.94929688 -5.59765625 21.21484375 C-4.57072071 17.06906695 -3.36512004 13.04985613 -2 9 C-1.59901675 7.38121576 -1.22105643 5.75640888 -0.875 4.125 C-0.70742188 3.34382813 -0.53984375 2.56265625 -0.3671875 1.7578125 C-0.24601563 1.17773438 -0.12484375 0.59765625 0 0 Z " fill="#141612" transform="translate(550,309)"/>
<path d="M0 0 C0.33 0 0.66 0 1 0 C2.50401732 8.63793734 1.38289756 16.42832093 0 25 C-4.05950421 22.29366386 -4.2553972 19.19711949 -5.25 14.6875 C-5.435625 13.92759766 -5.62125 13.16769531 -5.8125 12.38476562 C-6.75405134 8.27974446 -7.28602908 5.13013185 -6 1 C-4.68 1 -3.36 1 -2 1 C-2.33 2.32 -2.66 3.64 -3 5 C-2.34 5 -1.68 5 -1 5 C-0.67 3.35 -0.34 1.7 0 0 Z " fill="#F0F1EA" transform="translate(375,751)"/>
<path d="M0 0 C1.15680267 0.03753891 1.15680267 0.03753891 2.3369751 0.07583618 C4.79282071 0.1578097 7.24783462 0.25448506 9.703125 0.3515625 C11.37106011 0.40982532 13.03902905 0.4671281 14.70703125 0.5234375 C18.78953824 0.66335441 22.87136196 0.81645614 26.953125 0.9765625 C26.953125 1.3065625 26.953125 1.6365625 26.953125 1.9765625 C17.053125 2.4715625 17.053125 2.4715625 6.953125 2.9765625 C6.623125 3.9665625 6.293125 4.9565625 5.953125 5.9765625 C0.013125 5.9765625 -5.926875 5.9765625 -12.046875 5.9765625 C-12.046875 4.6565625 -12.046875 3.3365625 -12.046875 1.9765625 C-8.22847058 -0.57775827 -4.39892743 -0.19012263 0 0 Z " fill="#DFE1DA" transform="translate(407.046875,1113.0234375)"/>
<path d="M0 0 C1.11761719 -0.02578125 2.23523438 -0.0515625 3.38671875 -0.078125 C6.69182159 0.29254074 7.19458396 0.8710248 9.3125 3.25 C-3.79258235 5.44781934 -16.39832747 6.68810459 -29.6875 6.25 C-29.6875 5.92 -29.6875 5.59 -29.6875 5.25 C-28.53121094 5.17652344 -28.53121094 5.17652344 -27.3515625 5.1015625 C-26.34867188 5.02679687 -25.34578125 4.95203125 -24.3125 4.875 C-23.31476562 4.80539062 -22.31703125 4.73578125 -21.2890625 4.6640625 C-18.53241121 4.48636036 -18.53241121 4.48636036 -16.6875 2.25 C-11.29912279 0.51802161 -5.62693991 0.07842425 0 0 Z " fill="#EDEFE7" transform="translate(612.6875,1095.75)"/>
<path d="M0 0 C0.40863281 0.5465625 0.81726563 1.093125 1.23828125 1.65625 C2.49665923 3.33036704 3.76615631 4.9961497 5.04296875 6.65625 C5.75066406 7.5946875 6.45835937 8.533125 7.1875 9.5 C7.90292969 10.4384375 8.61835938 11.376875 9.35546875 12.34375 C11 15 11 15 11 19 C10.34 19.33 9.68 19.66 9 20 C9 19.34 9 18.68 9 18 C5.5657338 17.14143345 3.38317487 17.02408417 0 18 C-0.19430855 15.3753399 -0.38073238 12.75053235 -0.5625 10.125 C-0.61857422 9.37863281 -0.67464844 8.63226562 -0.73242188 7.86328125 C-1.11328125 2.2265625 -1.11328125 2.2265625 0 0 Z " fill="#F2F4ED" transform="translate(502,958)"/>
<path d="M0 0 C0.99 0.33 1.98 0.66 3 1 C3.94921875 3.9140625 3.94921875 3.9140625 4.6875 7.625 C5.06455078 9.43871094 5.06455078 9.43871094 5.44921875 11.2890625 C5.98839508 14.92181086 6.09895734 18.33386626 6 22 C4.68 22 3.36 22 2 22 C2 20.68 2 19.36 2 18 C1.34 18 0.68 18 0 18 C-0.33 18.99 -0.66 19.98 -1 21 C-1.02888146 17.68751813 -1.04675799 14.37506833 -1.0625 11.0625 C-1.07087891 10.11697266 -1.07925781 9.17144531 -1.08789062 8.19726562 C-1.09111328 7.29814453 -1.09433594 6.39902344 -1.09765625 5.47265625 C-1.10289307 4.64000244 -1.10812988 3.80734863 -1.11352539 2.94946289 C-1 1 -1 1 0 0 Z " fill="#F6F8F2" transform="translate(486,912)"/>
<path d="M0 0 C0.66 0.33 1.32 0.66 2 1 C2 17.17 2 33.34 2 50 C1.01 50.495 1.01 50.495 0 51 C-0.16781295 48.39590255 -0.33429651 45.7917318 -0.5 43.1875 C-0.54769531 42.44951172 -0.59539062 41.71152344 -0.64453125 40.95117188 C-0.94710094 36.17489321 -0.99442767 31.51551083 -0.78125 26.73828125 C-0.73613281 25.70123047 -0.69101562 24.66417969 -0.64453125 23.59570312 C-0.54903521 21.42639435 -0.45269659 19.25712248 -0.35546875 17.08789062 C-0.10890186 11.38515062 0.05521672 5.70802878 0 0 Z " fill="#F0F1EB" transform="translate(389,379)"/>
<path d="M0 0 C0.99 0.99 1.98 1.98 3 3 C2.67 3.99 2.34 4.98 2 6 C1.91821886 7.70016844 1.89250499 9.40336297 1.90234375 11.10546875 C1.90556641 12.08837891 1.90878906 13.07128906 1.91210938 14.08398438 C1.92048828 15.10814453 1.92886719 16.13230469 1.9375 17.1875 C1.94201172 18.22326172 1.94652344 19.25902344 1.95117188 20.32617188 C1.9629599 22.88417266 1.97941485 25.44205733 2 28 C1 26 0 24 -1 22 C-1.99 22 -2.98 22 -4 22 C-5.32612202 19.34775596 -4.74159076 18.27247172 -4.00390625 15.4296875 C-3.77509766 14.53378906 -3.54628906 13.63789063 -3.31054688 12.71484375 C-3.06369141 11.77769531 -2.81683594 10.84054687 -2.5625 9.875 C-2.31951172 8.93011719 -2.07652344 7.98523438 -1.82617188 7.01171875 C-1.22371772 4.67277909 -0.61474965 2.33573259 0 0 Z " fill="#E9EAE5" transform="translate(550,447)"/>
<path d="M0 0 C1.98 0.66 3.96 1.32 6 2 C8.43326039 11.99562363 8.43326039 11.99562363 6.625 16.1875 C5.820625 17.0846875 5.820625 17.0846875 5 18 C3 17 3 17 1 14 C0.67 14 0.34 14 0 14 C0 9.38 0 4.76 0 0 Z " fill="#F6F6F2" transform="translate(340,285)"/>
<path d="M0 0 C5.27749285 0.53851968 9.25645564 1.77343836 14 4 C13.25 7.375 13.25 7.375 12 11 C9.921875 12.2265625 9.921875 12.2265625 8 13 C7.60167969 12.44570312 7.20335937 11.89140625 6.79296875 11.3203125 C6.26316406 10.59585937 5.73335937 9.87140625 5.1875 9.125 C4.66542969 8.40570312 4.14335938 7.68640625 3.60546875 6.9453125 C1.96727223 4.76971345 1.96727223 4.76971345 -1 3 C-0.67 2.01 -0.34 1.02 0 0 Z " fill="#EEEFE7" transform="translate(665,1079)"/>
<path d="M0 0 C1.32 0 2.64 0 4 0 C5.31534494 3.65857532 4.65468309 6.08026481 3.5625 9.75 C3.27503906 10.73484375 2.98757813 11.7196875 2.69140625 12.734375 C2.46324219 13.48203125 2.23507812 14.2296875 2 15 C1.67 14.34 1.34 13.68 1 13 C-0.32 13 -1.64 13 -3 13 C-6.07692308 6.6 -6.07692308 6.6 -5.6875 3.5625 C-5.460625 3.046875 -5.23375 2.53125 -5 2 C-4.01 2 -3.02 2 -2 2 C-1.67 2.33 -1.34 2.66 -1 3 C-0.67 2.01 -0.34 1.02 0 0 Z " fill="#F3F4ED" transform="translate(360,987)"/>
<path d="M0 0 C0.99 0.33 1.98 0.66 3 1 C3 8.26 3 15.52 3 23 C2.67 23 2.34 23 2 23 C1.67 21.02 1.34 19.04 1 17 C0.67 18.65 0.34 20.3 0 22 C-1.32 22 -2.64 22 -4 22 C-2.92373883 14.59211729 -1.72864339 7.28499714 0 0 Z " fill="#EEEFEB" transform="translate(580,270)"/>
<path d="M0 0 C0.66 0 1.32 0 2 0 C2.2560009 3.39436569 2.47502609 6.79015396 2.6875 10.1875 C2.76033203 11.14720703 2.83316406 12.10691406 2.90820312 13.09570312 C3.21987789 18.39417406 3.32648666 21.60903761 0 26 C-0.71923208 29.69523952 -0.71923208 29.69523952 -1 33 C-1.33 33 -1.66 33 -2 33 C-2.66 28.05 -3.32 23.1 -4 18 C-3.34 18 -2.68 18 -2 18 C-0.8838344 14.28570102 -0.6875805 10.60838492 -0.4375 6.75 C-0.31181641 4.85507812 -0.31181641 4.85507812 -0.18359375 2.921875 C-0.12300781 1.95765625 -0.06242187 0.9934375 0 0 Z " fill="#E9E9E3" transform="translate(374,284)"/>
<path d="M0 0 C1.54571278 2.31856917 2.79618552 4.50638429 4 7 C5.32 6.67 6.64 6.34 8 6 C8.22174933 7.45635371 8.42698698 8.91522956 8.625 10.375 C8.74101562 11.18710937 8.85703125 11.99921875 8.9765625 12.8359375 C8.98429687 13.55007813 8.99203125 14.26421875 9 15 C8.34 15.66 7.68 16.32 7 17 C7 16.34 7 15.68 7 15 C6.34 15 5.68 15 5 15 C4.67 16.65 4.34 18.3 4 20 C3.34 18.68 2.68 17.36 2 16 C1.34 16 0.68 16 0 16 C0 10.72 0 5.44 0 0 Z " fill="#EFF0E9" transform="translate(340,750)"/>
<path d="M0 0 C0.66 0 1.32 0 2 0 C1.74535902 2.1270011 1.47077058 4.25162215 1.1875 6.375 C1.03667969 7.55835938 0.88585937 8.74171875 0.73046875 9.9609375 C0 13 0 13 -3 15 C-4.20450304 17.55183404 -4.20450304 17.55183404 -5 20 C-7.31 20.33 -9.62 20.66 -12 21 C-12 19.68 -12 18.36 -12 17 C-10.58125747 15.91905331 -9.16126557 14.83969918 -7.734375 13.76953125 C-4.03308758 9.99321773 -2.14613565 4.77172714 0 0 Z " fill="#EAECE5" transform="translate(733,1084)"/>
<path d="M0 0 C0.99 0 1.98 0 3 0 C4.82421875 2.1875 4.82421875 2.1875 6.6875 5 C7.31011719 5.928125 7.93273437 6.85625 8.57421875 7.8125 C9.04472656 8.534375 9.51523437 9.25625 10 10 C10 9.01 10 8.02 10 7 C10.66 7 11.32 7 12 7 C12.33 8.98 12.66 10.96 13 13 C11.35 13.33 9.7 13.66 8 14 C7.34 12.35 6.68 10.7 6 9 C5.67 10.65 5.34 12.3 5 14 C4.67 14 4.34 14 4 14 C3.9175 12.948125 3.835 11.89625 3.75 10.8125 C2.94679238 6.72952791 1.80665291 4.9877273 -1 2 C-0.67 1.34 -0.34 0.68 0 0 Z M6 0 C7.65 0 9.3 0 11 0 C11 0.66 11 1.32 11 2 C9.35 2.66 7.7 3.32 6 4 C6 2.68 6 1.36 6 0 Z " fill="#1D1E1B" transform="translate(685,1084)"/>
<path d="M0 0 C0.66 0.33 1.32 0.66 2 1 C2.36953141 3.63738146 2.60620563 6.16158127 2.75 8.8125 C2.80542969 9.53759766 2.86085938 10.26269531 2.91796875 11.00976562 C3.1740597 15.25078689 2.95451598 17.09096804 1 21 C-0.98 15.72 -2.96 10.44 -5 5 C-3.35 3.35 -1.7 1.7 0 0 Z " fill="#0D0E0B" transform="translate(500,936)"/>
<path d="M0 0 C0.33 0 0.66 0 1 0 C1.33 1.98 1.66 3.96 2 6 C2.99 5.67 3.98 5.34 5 5 C5 9.95 5 14.9 5 20 C4.01 19.67 3.02 19.34 2 19 C1.01 19.33 0.02 19.66 -1 20 C-0.67 13.4 -0.34 6.8 0 0 Z " fill="#F2F3ED" transform="translate(514,719)"/>
<path d="M0 0 C4.48528865 0.8404387 8.89057943 1.94417692 13.3125 3.0625 C14.05306641 3.24876953 14.79363281 3.43503906 15.55664062 3.62695312 C17.37136441 4.08356105 19.18571971 4.54163306 21 5 C20.360625 5.103125 19.72125 5.20625 19.0625 5.3125 C18.0415625 5.6528125 18.0415625 5.6528125 17 6 C16.67 6.99 16.34 7.98 16 9 C13 10 13 10 10.1875 8.85546875 C9.135625 8.30503906 8.08375 7.75460937 7 7.1875 C5.948125 6.64480469 4.89625 6.10210938 3.8125 5.54296875 C1 4 1 4 -2 2 C-1.34 2 -0.68 2 0 2 C0 1.34 0 0.68 0 0 Z " fill="#E2E5DE" transform="translate(679,1063)"/>
<path d="M0 0 C4.42066456 1.85667911 8.72934283 3.81259023 13 6 C10.81434857 8.18565143 8.71931095 9.54085754 6 11 C4.33333333 11 2.66666667 11 1 11 C0.63890458 9.35567294 0.28629924 7.7094792 -0.0625 6.0625 C-0.25972656 5.14597656 -0.45695313 4.22945312 -0.66015625 3.28515625 C-0.77230469 2.53105469 -0.88445313 1.77695313 -1 1 C-0.67 0.67 -0.34 0.34 0 0 Z " fill="#EEF1E8" transform="translate(597,1029)"/>
<path d="M0 0 C1.74965358 -0.05429959 3.49979787 -0.09292823 5.25 -0.125 C6.22453125 -0.14820313 7.1990625 -0.17140625 8.203125 -0.1953125 C11.0196498 0.00137219 12.60949036 0.55431084 15 2 C12.42886356 4.57113644 10.52706232 5.10800512 7 6 C4.30708022 5.98367927 1.78881394 5.88312151 -0.875 5.625 C-1.56335938 5.56828125 -2.25171875 5.5115625 -2.9609375 5.453125 C-4.64157689 5.31307172 -6.32096005 5.15807755 -8 5 C-4.91190305 3.23537317 -3.76687864 3 0 3 C0 2.01 0 1.02 0 0 Z " fill="#131412" transform="translate(439,1001)"/>
<path d="M0 0 C3.33161397 2.98696425 5.34826557 5.82719722 7 10 C6.6875 12.375 6.6875 12.375 6 14 C5.67 13.34 5.34 12.68 5 12 C3.02 12.99 3.02 12.99 1 14 C-3 10 -3 10 -3.125 6.875 C-3.08375 5.92625 -3.0425 4.9775 -3 4 C-2.01 4.33 -1.02 4.66 0 5 C0 3.35 0 1.7 0 0 Z " fill="#1C1C19" transform="translate(726,1057)"/>
<path d="M0 0 C0.36088615 2.31146089 0.71354191 4.62420829 1.0625 6.9375 C1.25972656 8.22527344 1.45695313 9.51304688 1.66015625 10.83984375 C1.77230469 11.88269531 1.88445313 12.92554687 2 14 C1.67 14.33 1.34 14.66 1 15 C0.63239269 17.32817964 0.29758419 19.6618385 0 22 C-1.32 22.33 -2.64 22.66 -4 23 C-3.67 15.74 -3.34 8.48 -3 1 C-1 0 -1 0 0 0 Z " fill="#171816" transform="translate(586,67)"/>
<path d="M0 0 C0.99 0 1.98 0 3 0 C3.90238747 2.70716242 4.11851302 4.23776768 4.09765625 7.01171875 C4.09443359 7.76904297 4.09121094 8.52636719 4.08789062 9.30664062 C4.07951172 10.09232422 4.07113281 10.87800781 4.0625 11.6875 C4.05798828 12.48478516 4.05347656 13.28207031 4.04882812 14.10351562 C4.0370585 16.06904257 4.01912348 18.03453085 4 20 C3.67 20 3.34 20 3 20 C2.67 22.31 2.34 24.62 2 27 C1.67 27 1.34 27 1 27 C0.67 18.09 0.34 9.18 0 0 Z " fill="#1E1E1E" transform="translate(319,88)"/>
<path d="M0 0 C0.33 0 0.66 0 1 0 C0.85816304 1.75032844 0.71136571 3.50025534 0.5625 5.25 C0.48128906 6.22453125 0.40007812 7.1990625 0.31640625 8.203125 C0.04783207 10.57718809 -0.40554885 12.69650178 -1 15 C-1.21192095 16.58025005 -1.39923371 18.16398461 -1.5625 19.75 C-1.64628906 20.54921875 -1.73007812 21.3484375 -1.81640625 22.171875 C-1.87699219 22.77515625 -1.93757813 23.3784375 -2 24 C-2.66 24 -3.32 24 -4 24 C-4 17.07 -4 10.14 -4 3 C-3.01 2.67 -2.02 2.34 -1 2 C-0.67 1.34 -0.34 0.68 0 0 Z " fill="#F1F1E8" transform="translate(360,823)"/>
<path d="M0 0 C0.66 0 1.32 0 2 0 C2.33 0.66 2.66 1.32 3 2 C3.99 2 4.98 2 6 2 C6.66 2 7.32 2 8 2 C8 3.32 8 4.64 8 6 C7.34 6 6.68 6 6 6 C6.66 6.66 7.32 7.32 8 8 C8 8.99 8 9.98 8 11 C7.01 11.33 6.02 11.66 5 12 C-0.75409836 6.68852459 -0.75409836 6.68852459 -1 3 C-0.67 2.01 -0.34 1.02 0 0 Z " fill="#EFF0EA" transform="translate(431,987)"/>
<path d="M0 0 C0.33 0 0.66 0 1 0 C1.02697137 2.60423592 1.04682489 5.20819244 1.0625 7.8125 C1.07087891 8.55048828 1.07925781 9.28847656 1.08789062 10.04882812 C1.10259828 13.29922068 1.03531702 15.89404895 0 19 C-0.99 18.67 -1.98 18.34 -3 18 C-3.19456705 16.04235617 -3.38044247 14.08384679 -3.5625 12.125 C-3.66691406 11.03445313 -3.77132813 9.94390625 -3.87890625 8.8203125 C-4 6 -4 6 -3 4 C-2.34 4 -1.68 4 -1 4 C-0.67 2.68 -0.34 1.36 0 0 Z " fill="#EDEEE9" transform="translate(512,895)"/>
<path d="M0 0 C0.33 0 0.66 0 1 0 C1.5364195 3.20592709 2.05130483 6.41496222 2.5625 9.625 C2.71396484 10.52863281 2.86542969 11.43226563 3.02148438 12.36328125 C3.77750153 17.18069288 4.20733572 21.18664832 3 26 C2.34 26 1.68 26 1 26 C-0.46037646 17.05670282 -1.38950417 9.0317771 0 0 Z " fill="#E4E6E0" transform="translate(361,830)"/>
<path d="M0 0 C0.99 0.495 0.99 0.495 2 1 C3.67826771 8.40971026 3.10639726 16.45761637 3 24 C2.01 24.33 1.02 24.66 0 25 C0 16.75 0 8.5 0 0 Z " fill="#EEEFE7" transform="translate(598,182)"/>
<path d="M0 0 C0.33 0 0.66 0 1 0 C1 2.64 1 5.28 1 8 C1.66 8 2.32 8 3 8 C3 9.32 3 10.64 3 12 C2.01 12 1.02 12 0 12 C0.7425 12.6496875 0.7425 12.6496875 1.5 13.3125 C3 15 3 15 3 18 C1.68 18.33 0.36 18.66 -1 19 C-1.58371496 16.90161956 -2.14137045 14.79597483 -2.6875 12.6875 C-3.00074219 11.51574219 -3.31398438 10.34398437 -3.63671875 9.13671875 C-4 6 -4 6 -2.64453125 4.26953125 C-1.83048828 3.64111328 -1.83048828 3.64111328 -1 3 C-0.67 2.01 -0.34 1.02 0 0 Z " fill="#F1F2ED" transform="translate(516,917)"/>
<path d="M0 0 C0.33 0 0.66 0 1 0 C0.67 8.58 0.34 17.16 0 26 C-0.33 26 -0.66 26 -1 26 C-1.07347656 25.04287109 -1.07347656 25.04287109 -1.1484375 24.06640625 C-1.22320312 23.24011719 -1.29796875 22.41382813 -1.375 21.5625 C-1.44460938 20.73878906 -1.51421875 19.91507813 -1.5859375 19.06640625 C-1.72257812 18.38449219 -1.85921875 17.70257812 -2 17 C-2.66 16.67 -3.32 16.34 -4 16 C-4 11.71 -4 7.42 -4 3 C-3.01 3.99 -2.02 4.98 -1 6 C-0.67 4.02 -0.34 2.04 0 0 Z " fill="#E3E4DE" transform="translate(504,530)"/>
<path d="M0 0 C1.32 0 2.64 0 4 0 C4 0.66 4 1.32 4 2 C4.99 2.33 5.98 2.66 7 3 C5.68 6.3 4.36 9.6 3 13 C1.68 13 0.36 13 -1 13 C-0.67 8.71 -0.34 4.42 0 0 Z " fill="#0E0F0C" transform="translate(534,478)"/>
<path d="M0 0 C0.66 0 1.32 0 2 0 C2.96088383 2.88265149 3.11670941 4.67662271 3.09765625 7.66796875 C3.09282227 9.00698242 3.09282227 9.00698242 3.08789062 10.37304688 C3.07951172 11.30181641 3.07113281 12.23058594 3.0625 13.1875 C3.05798828 14.12787109 3.05347656 15.06824219 3.04882812 16.03710938 C3.03704626 18.35813712 3.02059558 20.67903644 3 23 C2.34 23.33 1.68 23.66 1 24 C0.09516363 18.63510405 -0.12303662 13.49682543 -0.0625 8.0625 C-0.05798828 7.28326172 -0.05347656 6.50402344 -0.04882812 5.70117188 C-0.03716908 3.80074732 -0.01923877 1.90036294 0 0 Z " fill="#F0F0EC" transform="translate(323,200)"/>
<path d="M0 0 C2.4375 0.375 2.4375 0.375 5 1 C5.33 1.66 5.66 2.32 6 3 C5.34 3 4.68 3 4 3 C3.49874717 6.33142278 3.49874717 6.33142278 4 10 C6.68565179 12.42935224 6.68565179 12.42935224 10 14 C11.175625 14.61875 11.175625 14.61875 12.375 15.25 C12.91125 15.4975 13.4475 15.745 14 16 C11.875 17.25 11.875 17.25 9 18 C4.92151368 16.16068264 3.34633042 14.87407201 1.6875 10.6875 C1.02449891 7.13140323 0.43967035 3.59064119 0 0 Z " fill="#EAEDE5" transform="translate(654,1063)"/>
<path d="M0 0 C0.99 0 1.98 0 3 0 C3 10.23 3 20.46 3 31 C2.67 31 2.34 31 2 31 C2 25.39 2 19.78 2 14 C1.34 13.67 0.68 13.34 0 13 C0.33 12.34 0.66 11.68 1 11 C0.34 11 -0.32 11 -1 11 C-0.67 7.37 -0.34 3.74 0 0 Z " fill="#DADCD7" transform="translate(322,605)"/>
<path d="M0 0 C2.3828125 0.0234375 2.3828125 0.0234375 5.125 0.375 C6.03507813 0.48585938 6.94515625 0.59671875 7.8828125 0.7109375 C8.93082031 0.85402344 8.93082031 0.85402344 10 1 C9.67 1.99 9.34 2.98 9 4 C9.99 4.33 10.98 4.66 12 5 C12 5.66 12 6.32 12 7 C14.31 7.33 16.62 7.66 19 8 C19 8.99 19 9.98 19 11 C14.15713185 9.50640515 9.68649104 7.54966433 5.125 5.375 C4.43664062 5.05015625 3.74828125 4.7253125 3.0390625 4.390625 C1.35794781 3.59676528 -0.32122921 2.79880442 -2 2 C-1.34 1.34 -0.68 0.68 0 0 Z " fill="#22231F" transform="translate(619,1038)"/>
<path d="M0 0 C0.99 0.33 1.98 0.66 3 1 C2.67 1.66 2.34 2.32 2 3 C2.66 3 3.32 3 4 3 C4 2.34 4 1.68 4 1 C6.64 1.66 9.28 2.32 12 3 C12 4.32 12 5.64 12 7 C9.19966161 8.11346788 8.09856297 8.03510273 5.203125 7.00390625 C4.22859375 6.52824219 3.2540625 6.05257813 2.25 5.5625 C1.26515625 5.08941406 0.2803125 4.61632813 -0.734375 4.12890625 C-1.48203125 3.75636719 -2.2296875 3.38382813 -3 3 C-2.01 2.67 -1.02 2.34 0 2 C0 1.34 0 0.68 0 0 Z " fill="#EDEFE5" transform="translate(635,1022)"/>
<path d="M0 0 C0.66 0.66 1.32 1.32 2 2 C2.66 1.34 3.32 0.68 4 0 C6 2 6 2 6.13525391 4.06298828 C6.08288574 4.89040527 6.03051758 5.71782227 5.9765625 6.5703125 C5.925 7.46621094 5.8734375 8.36210937 5.8203125 9.28515625 C5.75585938 10.22230469 5.69140625 11.15945312 5.625 12.125 C5.56828125 13.06988281 5.5115625 14.01476563 5.453125 14.98828125 C5.31142903 17.32626481 5.16000217 19.66320944 5 22 C4.67 22 4.34 22 4 22 C3.67 16.72 3.34 11.44 3 6 C2.67 6 2.34 6 2 6 C2 7.98 2 9.96 2 12 C1.01 12 0.02 12 -1 12 C-1.02687279 10.18757948 -1.04633715 8.37504767 -1.0625 6.5625 C-1.07410156 5.55316406 -1.08570313 4.54382813 -1.09765625 3.50390625 C-1 1 -1 1 0 0 Z " fill="#E0E1DB" transform="translate(581,14)"/>
<path d="M0 0 C3.72433382 1.2125738 7.37802806 2.50859979 11 4 C10.01 4.495 10.01 4.495 9 5 C9 5.99 9 6.98 9 8 C6.03 8 3.06 8 0 8 C0 6.68 0 5.36 0 4 C-0.33 3.34 -0.66 2.68 -1 2 C-0.67 1.34 -0.34 0.68 0 0 Z " fill="#161714" transform="translate(646,1031)"/>
<path d="M0 0 C-1.625 3 -1.625 3 -4 6 C-7.25 6.375 -7.25 6.375 -10 6 C-10.33 6.66 -10.66 7.32 -11 8 C-11.66 8 -12.32 8 -13 8 C-13.33 8.99 -13.66 9.98 -14 11 C-13.76928323 7.0009094 -13.56356875 4.66603579 -10.9375 1.5625 C-6.98715265 -0.53874859 -4.43222695 -0.30048996 0 0 Z " fill="#1B1C1A" transform="translate(600,10)"/>
<path d="M0 0 C2.64 0.66 5.28 1.32 8 2 C8 2.66 8 3.32 8 4 C9.65 4 11.3 4 13 4 C12.67 5.65 12.34 7.3 12 9 C7.50202887 7.31326082 3.27113698 5.18326108 -1 3 C-0.67 2.01 -0.34 1.02 0 0 Z " fill="#E2E4DE" transform="translate(605,1007)"/>
<path d="M0 0 C0.66 0 1.32 0 2 0 C2.85298376 3.67387495 3.10789471 7.0447393 3.0625 10.8125 C3.05347656 11.78832031 3.04445313 12.76414062 3.03515625 13.76953125 C3.02355469 14.50558594 3.01195312 15.24164062 3 16 C2.34 16 1.68 16 1 16 C1 18.64 1 21.28 1 24 C0.67 24 0.34 24 0 24 C-0.19632025 20.3754207 -0.38055978 16.75032733 -0.5625 13.125 C-0.64661133 11.57619141 -0.64661133 11.57619141 -0.73242188 9.99609375 C-0.78076172 9.00996094 -0.82910156 8.02382813 -0.87890625 7.0078125 C-0.9260376 6.09660645 -0.97316895 5.18540039 -1.02172852 4.24658203 C-1 2 -1 2 0 0 Z " fill="#F2F3ED" transform="translate(391,892)"/>
<path d="M0 0 C4.95 0.99 9.9 1.98 15 3 C14.34 3.66 13.68 4.32 13 5 C13.66 5.66 14.32 6.32 15 7 C10.94087374 8.35304209 9.22850409 7.15216503 5.3125 5.5625 C4.13300781 5.08941406 2.95351563 4.61632813 1.73828125 4.12890625 C0.83464844 3.75636719 -0.06898438 3.38382813 -1 3 C-0.67 2.01 -0.34 1.02 0 0 Z " fill="#E5E7E0" transform="translate(634,1096)"/>
<path d="M0 0 C0.66 0 1.32 0 2 0 C2.66 2.97 3.32 5.94 4 9 C4.33 9 4.66 9 5 9 C5.125 12.375 5.125 12.375 5 16 C4.34 16.66 3.68 17.32 3 18 C2.34 16.68 1.68 15.36 1 14 C0.67 14 0.34 14 0 14 C0 9.38 0 4.76 0 0 Z " fill="#151613" transform="translate(373,443)"/>
<path d="M0 0 C0.33 0 0.66 0 1 0 C2.94767454 5.84302362 4.20393777 11.3881867 2.1875 17.4375 C1 19 1 19 -2 20 C-1.41339754 13.32271667 -0.76418989 6.65936905 0 0 Z " fill="#1D1D1A" transform="translate(576,158)"/>
<path d="M0 0 C0.33 5.28 0.66 10.56 1 16 C0.01 16 -0.98 16 -2 16 C-2.12375 14.865625 -2.2475 13.73125 -2.375 12.5625 C-2.58125 11.386875 -2.7875 10.21125 -3 9 C-3.66 8.67 -4.32 8.34 -5 8 C-4.74438677 5.6568787 -4.40729228 3.32156597 -4 1 C-2 0 -2 0 0 0 Z " fill="#0F110D" transform="translate(359,1024)"/>
<path d="M0 0 C0.33 0 0.66 0 1 0 C0.67 8.25 0.34 16.5 0 25 C-0.33 25 -0.66 25 -1 25 C-1.33 22.36 -1.66 19.72 -2 17 C-2.33 17 -2.66 17 -3 17 C-3.08160748 15.10489301 -3.13946459 13.20875496 -3.1875 11.3125 C-3.22230469 10.25675781 -3.25710938 9.20101562 -3.29296875 8.11328125 C-2.96555119 4.63392401 -2.05643142 2.7919812 0 0 Z " fill="#171816" transform="translate(603,58)"/>
<path d="M0 0 C2.43929003 3.65893505 2.26289673 6.40278333 2.1875 10.625 C2.18685547 11.31851562 2.18621094 12.01203125 2.18554688 12.7265625 C2.14043257 17.85956743 2.14043257 17.85956743 1 19 C0.63239269 21.32817964 0.29758419 23.6618385 0 26 C-0.33 26 -0.66 26 -1 26 C-1.18451025 8.14350797 -1.18451025 8.14350797 0 0 Z " fill="#CACBC5" transform="translate(372,1042)"/>
<path d="M0 0 C0.99 0.33 1.98 0.66 3 1 C3.625 3.875 3.625 3.875 4 7 C3.34 7.66 2.68 8.32 2 9 C2 9.99 2 10.98 2 12 C2 12.99 2 13.98 2 15 C1.34 15.66 0.68 16.32 0 17 C-0.33 15.35 -0.66 13.7 -1 12 C-1.99 12.495 -1.99 12.495 -3 13 C-2.01 8.71 -1.02 4.42 0 0 Z " fill="#E8E9E6" transform="translate(385,991)"/>
<path d="M0 0 C0.33 2.97 0.66 5.94 1 9 C0.01 9 -0.98 9 -2 9 C-3.60546875 7.25 -3.60546875 7.25 -5.1875 5 C-5.71730469 4.2575 -6.24710938 3.515 -6.79296875 2.75 C-7.19128906 2.1725 -7.58960938 1.595 -8 1 C-3.375 -1.125 -3.375 -1.125 0 0 Z " fill="#EAECE5" transform="translate(533,954)"/>
<path d="M0 0 C-0.33 4.95 -0.66 9.9 -1 15 C-5 11 -5 11 -5.390625 8.421875 C-5.34421875 7.54015625 -5.2978125 6.6584375 -5.25 5.75 C-5.21390625 4.85796875 -5.1778125 3.9659375 -5.140625 3.046875 C-5.09421875 2.37140625 -5.0478125 1.6959375 -5 1 C-1.125 0 -1.125 0 0 0 Z " fill="#E4E5E0" transform="translate(410,952)"/>
<path d="M0 0 C0.33 0 0.66 0 1 0 C3.39306591 9.80729692 3.39306591 9.80729692 3 14 C2.67 14.33 2.34 14.66 2 15 C1.92820036 16.51928038 1.91607993 18.04167482 1.9375 19.5625 C1.94652344 20.38878906 1.95554687 21.21507813 1.96484375 22.06640625 C1.97644531 22.70449219 1.98804688 23.34257813 2 24 C0.50463867 22.80541992 0.50463867 22.80541992 -1 21 C-1.2487793 18.73168945 -1.2487793 18.73168945 -1.07421875 16.11328125 C-1.01943359 15.17548828 -0.96464844 14.23769531 -0.90820312 13.27148438 C-0.79895508 11.80678711 -0.79895508 11.80678711 -0.6875 10.3125 C-0.5956543 8.83040039 -0.5956543 8.83040039 -0.50195312 7.31835938 C-0.34867116 4.87763881 -0.18082846 2.43880911 0 0 Z " fill="#E6E6E2" transform="translate(601,96)"/>
<path d="M0 0 C0 1.98 0 3.96 0 6 C-2.64 6 -5.28 6 -8 6 C-8 4.02 -8 2.04 -8 0 C-4.94736336 -0.98120464 -3.05263664 -0.98120464 0 0 Z " fill="#F1F3E9" transform="translate(431,1018)"/>
<path d="M0 0 C4.62 2.31 9.24 4.62 14 7 C14 7.99 14 8.98 14 10 C11.03 9.505 11.03 9.505 8 9 C8 8.34 8 7.68 8 7 C4.7 6.01 1.4 5.02 -2 4 C-1.34 3.67 -0.68 3.34 0 3 C0 2.01 0 1.02 0 0 Z " fill="#151613" transform="translate(578,995)"/>
<path d="M0 0 C0.66 0.33 1.32 0.66 2 1 C2.02902429 4.27081471 2.04680684 7.5415963 2.0625 10.8125 C2.07087891 11.74126953 2.07925781 12.67003906 2.08789062 13.62695312 C2.09111328 14.51962891 2.09433594 15.41230469 2.09765625 16.33203125 C2.10289307 17.15421143 2.10812988 17.9763916 2.11352539 18.82348633 C2 21 2 21 1 24 C0.34 24 -0.32 24 -1 24 C-1.16677223 15.95787245 -0.6466598 8.01396246 0 0 Z " fill="#F3F3EB" transform="translate(518,741)"/>
<path d="M0 0 C0.33 0 0.66 0 1 0 C1 2.97 1 5.94 1 9 C1.99 8.67 2.98 8.34 4 8 C4.80967438 10.91482778 5.21845993 12.46113217 4.0625 15.3125 C3.5365625 16.1478125 3.5365625 16.1478125 3 17 C3 16.34 3 15.68 3 15 C2.01 15 1.02 15 0 15 C-1.18893275 10.39288558 -1.33243079 5.73225005 -1 1 C-0.67 0.67 -0.34 0.34 0 0 Z " fill="#E7E8E3" transform="translate(549,285)"/>
<path d="M0 0 C1.32 0 2.64 0 4 0 C3.7168444 2.08450717 3.42314331 4.16758367 3.125 6.25 C2.96257813 7.41015625 2.80015625 8.5703125 2.6328125 9.765625 C2.07810861 12.60077823 1.55010561 14.5887246 0 17 C-0.66 17.33 -1.32 17.66 -2 18 C-1.34 12.06 -0.68 6.12 0 0 Z " fill="#EFF0EA" transform="translate(592,195)"/>
<path d="M0 0 C3.3 0 6.6 0 10 0 C9.34 0.66 8.68 1.32 8 2 C8.3185177 4.10820797 8.3185177 4.10820797 9 6 C8.01 6.495 8.01 6.495 7 7 C5.0546875 6.22265625 5.0546875 6.22265625 2.875 5.0625 C2.15054687 4.68222656 1.42609375 4.30195312 0.6796875 3.91015625 C0.12539063 3.60980469 -0.42890625 3.30945312 -1 3 C-0.67 2.01 -0.34 1.02 0 0 Z " fill="#191A17" transform="translate(380,1103)"/>
<path d="M0 0 C0.33 0.99 0.66 1.98 1 3 C1.66 3.33 2.32 3.66 3 4 C2.34 5.32 1.68 6.64 1 8 C-3.95 6.02 -3.95 6.02 -9 4 C-7 1 -7 1 -5.0625 0.3125 C-3 0 -3 0 0 0 Z " fill="#EFF3EB" transform="translate(724,1047)"/>
<path d="M0 0 C1.48828125 1.08203125 1.48828125 1.08203125 3 3 C3.29296875 6.13671875 3.29296875 6.13671875 3.1875 9.6875 C3.14689453 11.45673828 3.14689453 11.45673828 3.10546875 13.26171875 C3.07066406 14.16535156 3.03585937 15.06898438 3 16 C2.34 16.33 1.68 16.66 1 17 C-1.55694972 13.16457543 -1.04045639 11.34097467 -0.625 6.8125 C-0.51414062 5.54019531 -0.40328125 4.26789063 -0.2890625 2.95703125 C-0.19367187 1.98121094 -0.09828125 1.00539063 0 0 Z " fill="#F2F3EF" transform="translate(600,117)"/>
<path d="M0 0 C1.01382963 3.6208201 1.49897691 7.27811418 2 11 C-1.18824568 12.59412284 -4.62896662 12.10174735 -8.125 12.0625 C-8.87910156 12.05798828 -9.63320313 12.05347656 -10.41015625 12.04882812 C-12.27347127 12.03703499 -14.13674555 12.01909942 -16 12 C-16 11.67 -16 11.34 -16 11 C-12.04 11 -8.08 11 -4 11 C-4 10.01 -4 9.02 -4 8 C-3.01 8 -2.02 8 -1 8 C-1.020625 6.865625 -1.04125 5.73125 -1.0625 4.5625 C-1 1 -1 1 0 0 Z " fill="#282925" transform="translate(663,1093)"/>
<path d="M0 0 C0.33 0.66 0.66 1.32 1 2 C1.66 2 2.32 2 3 2 C3.36666667 7.5 3.36666667 7.5 1.625 9.875 C0 11 0 11 -2 11 C-1.67 12.65 -1.34 14.3 -1 16 C-1.99 16.66 -2.98 17.32 -4 18 C-3.41632611 11.69632197 -1.95928381 6.01339937 0 0 Z " fill="#151614" transform="translate(360,1005)"/>
<path d="M0 0 C3.63 0.66 7.26 1.32 11 2 C11.33 1.34 11.66 0.68 12 0 C15 4.75 15 4.75 15 7 C13.35 7 11.7 7 10 7 C9.67 5.68 9.34 4.36 9 3 C7.35 3 5.7 3 4 3 C3.67 3.66 3.34 4.32 3 5 C1.5 3.625 1.5 3.625 0 2 C0 1.34 0 0.68 0 0 Z " fill="#181812" transform="translate(661,1090)"/>
<path d="M0 0 C0.99 0 1.98 0 3 0 C4.98 3.96 6.96 7.92 9 12 C6.66666667 12 4.33333333 12 2 12 C1.34 8.04 0.68 4.08 0 0 Z " fill="#171915" transform="translate(516,943)"/>
<path d="M0 0 C0.66 0 1.32 0 2 0 C2 4.29 2 8.58 2 13 C2.99 13.33 3.98 13.66 5 14 C4.67 15.65 4.34 17.3 4 19 C3.67 18.34 3.34 17.68 3 17 C2.01 16.67 1.02 16.34 0 16 C0 10.72 0 5.44 0 0 Z " fill="#EDEDE8" transform="translate(532,347)"/>
<path d="M0 0 C0.33 0 0.66 0 1 0 C1 5.28 1 10.56 1 16 C0 14 -1 12 -2 10 C-2.99 10 -3.98 10 -5 10 C-5.33 9.34 -5.66 8.68 -6 8 C-5.0625 5.875 -5.0625 5.875 -4 4 C-3.34 4 -2.68 4 -2 4 C-1.34 2.68 -0.68 1.36 0 0 Z " fill="#E7E9E0" transform="translate(551,459)"/>
<path d="M0 0 C0.99 0.33 1.98 0.66 3 1 C3.70211894 2.65204456 4.36971413 4.31923769 5 6 C5.66 6.33 6.32 6.66 7 7 C6.34 9.64 5.68 12.28 5 15 C2 13 2 13 1.26953125 9.9609375 C1.11871094 8.77757812 0.96789062 7.59421875 0.8125 6.375 C0.65394531 5.18648437 0.49539063 3.99796875 0.33203125 2.7734375 C0.22246094 1.85820312 0.11289062 0.94296875 0 0 Z " fill="#0C0D0B" transform="translate(334,226)"/>
<path d="M0 0 C0.66 0 1.32 0 2 0 C2 5.94 2 11.88 2 18 C1.01 18 0.02 18 -1 18 C-1.09945415 11.88909517 -1.0712828 6.02596573 0 0 Z " fill="#F1F2EC" transform="translate(564,195)"/>
<path d="M0 0 C2.64 0.33 5.28 0.66 8 1 C8 1.66 8 2.32 8 3 C7.01 3 6.02 3 5 3 C5 3.66 5 4.32 5 5 C-0.94 5 -6.88 5 -13 5 C-13 4.67 -13 4.34 -13 4 C-12.22914063 3.95101563 -11.45828125 3.90203125 -10.6640625 3.8515625 C-9.66117188 3.77679687 -8.65828125 3.70203125 -7.625 3.625 C-6.62726562 3.55539062 -5.62953125 3.48578125 -4.6015625 3.4140625 C-1.84491121 3.23636036 -1.84491121 3.23636036 0 1 C0 0.67 0 0.34 0 0 Z " fill="#CED0CA" transform="translate(596,1097)"/>
<path d="M0 0 C0.66 0 1.32 0 2 0 C2 0.66 2 1.32 2 2 C2.53625 2.103125 3.0725 2.20625 3.625 2.3125 C6.62502044 3.18092697 9.2379535 4.55620296 12 6 C12 7.32 12 8.64 12 10 C5.07 6.04 5.07 6.04 -2 2 C-1.34 1.34 -0.68 0.68 0 0 Z " fill="#22231F" transform="translate(641,1084)"/>
<path d="M0 0 C1.32 0 2.64 0 4 0 C4 2.64 4 5.28 4 8 C3.01 8.33 2.02 8.66 1 9 C1 8.34 1 7.68 1 7 C0.34 7 -0.32 7 -1 7 C-0.67 7.99 -0.34 8.98 0 10 C-0.99 10 -1.98 10 -3 10 C-2.01 6.7 -1.02 3.4 0 0 Z " fill="#101210" transform="translate(545,330)"/>
<path d="M0 0 C0.33 0 0.66 0 1 0 C1.144375 1.051875 1.28875 2.10375 1.4375 3.1875 C1.87526966 6.15460549 2.37804866 9.06794366 3 12 C2.01 12.33 1.02 12.66 0 13 C-0.66 13.99 -1.32 14.98 -2 16 C-3.37729031 11.45494198 -2.45472571 8.44499522 -1 4 C-0.65864073 2.66869885 -0.32074044 1.33641852 0 0 Z " fill="#EAEBE4" transform="translate(338,252)"/>
<path d="M0 0 C1.21236328 0.04060547 1.21236328 0.04060547 2.44921875 0.08203125 C3.06410156 0.11683594 3.67898438 0.15164063 4.3125 0.1875 C3.3225 0.8475 2.3325 1.5075 1.3125 2.1875 C0.9825 3.1775 0.6525 4.1675 0.3125 5.1875 C-0.6775 4.8575 -1.6675 4.5275 -2.6875 4.1875 C-3.0175 4.8475 -3.3475 5.5075 -3.6875 6.1875 C-2.6975 6.5175 -1.7075 6.8475 -0.6875 7.1875 C-1.3475 7.8475 -2.0075 8.5075 -2.6875 9.1875 C-4.3375 7.2075 -5.9875 5.2275 -7.6875 3.1875 C-5.26849268 0.20484049 -3.789448 -0.16475861 0 0 Z " fill="#EAECE5" transform="translate(700.6875,1068.8125)"/>
<path d="M0 0 C3.63 0 7.26 0 11 0 C11 0.33 11 0.66 11 1 C13.97 1 16.94 1 20 1 C19.67 1.66 19.34 2.32 19 3 C13.58492882 4.03033543 7.26840091 5.16431399 2.1875 2.5625 C1.465625 2.046875 0.74375 1.53125 0 1 C0 0.67 0 0.34 0 0 Z " fill="#E3E6DC" transform="translate(672,1118)"/>
<path d="M0 0 C1.9453125 0.75 1.9453125 0.75 4 2 C4.6796875 3.875 4.6796875 3.875 4.875 6 C4.95492188 6.70125 5.03484375 7.4025 5.1171875 8.125 C5 10 5 10 3 12 C3 11.34 3 10.68 3 10 C1.68 10.33 0.36 10.66 -1 11 C-2.31625194 8.36749612 -1.74813658 7.19820944 -1.0625 4.375 C-0.86785156 3.55773437 -0.67320312 2.74046875 -0.47265625 1.8984375 C-0.23869141 0.95871094 -0.23869141 0.95871094 0 0 Z " fill="#E3E4DE" transform="translate(457,1008)"/>
<path d="M0 0 C2 1 2 1 3 3 C3.39091188 9.72598374 2.87412727 16.33477959 2 23 C1.67 23 1.34 23 1 23 C0.93941406 21.74703125 0.87882813 20.4940625 0.81640625 19.203125 C0.73197744 17.55207276 0.64733061 15.90103165 0.5625 14.25 C0.52318359 13.425 0.48386719 12.6 0.44335938 11.75 C0.40146484 10.95078125 0.35957031 10.1515625 0.31640625 9.328125 C0.27974854 8.5949707 0.24309082 7.86181641 0.20532227 7.10644531 C0.05302417 4.96229046 0.05302417 4.96229046 -0.58227539 2.79199219 C-0.72012451 2.20063477 -0.85797363 1.60927734 -1 1 C-0.67 0.67 -0.34 0.34 0 0 Z " fill="#E5E8DF" transform="translate(533,498)"/>
<path d="M0 0 C0.66 0 1.32 0 2 0 C2.625 1.875 2.625 1.875 3 4 C1 6 1 6 -2.625 6.125 C-3.73875 6.08375 -4.8525 6.0425 -6 6 C-6 5.34 -6 4.68 -6 4 C-7.65 4 -9.3 4 -11 4 C-11 3.67 -11 3.34 -11 3 C-10.28972656 2.86722656 -9.57945312 2.73445312 -8.84765625 2.59765625 C-7.92855469 2.42105469 -7.00945312 2.24445312 -6.0625 2.0625 C-4.68771484 1.80146484 -4.68771484 1.80146484 -3.28515625 1.53515625 C-1.04710156 1.22285012 -1.04710156 1.22285012 0 0 Z " fill="#E3E7DC" transform="translate(453,1018)"/>
<path d="M0 0 C-0.33 4.62 -0.66 9.24 -1 14 C-1.99 14 -2.98 14 -4 14 C-4 9.71 -4 5.42 -4 1 C-2 0 -2 0 0 0 Z " fill="#DCDDD7" transform="translate(494,722)"/>
<path d="M0 0 C0.33 0 0.66 0 1 0 C1 1.65 1 3.3 1 5 C2.32 5.33 3.64 5.66 5 6 C4.8125 8.3125 4.8125 8.3125 4 11 C1.4375 12.8125 1.4375 12.8125 -1 14 C-1.08333357 9.1666528 -0.95261487 4.76307437 0 0 Z " fill="#DBDDD8" transform="translate(527,515)"/>
<path d="M0 0 C0.99 0.33 1.98 0.66 3 1 C4.71050559 5.97601626 3.00885647 9.42616295 1 14 C-1.76832845 3.53665689 -1.76832845 3.53665689 0 0 Z " fill="#0E0F0C" transform="translate(376,441)"/>
<path d="M0 0 C0.33 0 0.66 0 1 0 C1 2.31 1 4.62 1 7 C0.34 7 -0.32 7 -1 7 C-0.67 10.96 -0.34 14.92 0 19 C-1.32 19 -2.64 19 -4 19 C-3.71512349 16.95737483 -3.42177949 14.91592973 -3.125 12.875 C-2.96257813 11.73804688 -2.80015625 10.60109375 -2.6328125 9.4296875 C-2.02568583 6.13921085 -1.13654367 3.14220897 0 0 Z " fill="#E4E4E2" transform="translate(580,273)"/>
<path d="M0 0 C3.63 0 7.26 0 11 0 C11.33 0.66 11.66 1.32 12 2 C8.23699626 3.25433458 4.72789091 3.10695422 0.8125 3.0625 C0.06291016 3.05798828 -0.68667969 3.05347656 -1.45898438 3.04882812 C-3.30602383 3.03706354 -5.15302213 3.01912865 -7 3 C-7 2.67 -7 2.34 -7 2 C-4.69 2 -2.38 2 0 2 C0 1.34 0 0.68 0 0 Z " fill="#262521" transform="translate(581,1118)"/>
<path d="M0 0 C0.66 0.33 1.32 0.66 2 1 C1.67 6.61 1.34 12.22 1 18 C0.67 18 0.34 18 0 18 C-0.33 16.35 -0.66 14.7 -1 13 C-1.99 13.495 -1.99 13.495 -3 14 C-2.69147815 12.041036 -2.3780582 10.08284287 -2.0625 8.125 C-1.88847656 7.03445313 -1.71445312 5.94390625 -1.53515625 4.8203125 C-1 2 -1 2 0 0 Z " fill="#21221F" transform="translate(550,309)"/>
<path d="M0 0 C0.99 0.33 1.98 0.66 3 1 C3.11988438 6.75445014 3.09324002 12.335029 2 18 C1.01 18.66 0.02 19.32 -1 20 C-0.48517081 14.147205 0.45357192 8.6702363 2 3 C1.34 3 0.68 3 0 3 C0 2.01 0 1.02 0 0 Z " fill="#1D1D1C" transform="translate(595,141)"/>
<path d="M0 0 C2.9375 0.8125 2.9375 0.8125 6 2 C6.33 2.99 6.66 3.98 7 5 C5.02 5.99 3.04 6.98 1 8 C1 7.01 1 6.02 1 5 C0.01 5 -0.98 5 -2 5 C-1.125 1.125 -1.125 1.125 0 0 Z " fill="#EBEEE7" transform="translate(659,1057)"/>
<path d="M0 0 C2 2 2 2 2 6 C2.99 6 3.98 6 5 6 C5 7.98 5 9.96 5 12 C3.33333333 10.33333333 1.66666667 8.66666667 0 7 C-0.598125 6.443125 -1.19625 5.88625 -1.8125 5.3125 C-3 4 -3 4 -3 2 C-2.01 2 -1.02 2 0 2 C0 1.34 0 0.68 0 0 Z " fill="#1C1D1A" transform="translate(417,1000)"/>
<path d="M0 0 C0.33 0 0.66 0 1 0 C1.08075665 2.29109597 1.13907731 4.58299267 1.1875 6.875 C1.22230469 8.15117188 1.25710938 9.42734375 1.29296875 10.7421875 C1.19628906 11.81726563 1.09960938 12.89234375 1 14 C0.01 14.66 -0.98 15.32 -2 16 C-2.72965366 18.56282742 -2.72965366 18.56282742 -3 21 C-4.4606285 18.35261084 -5 17.10551666 -5 14 C-4.01 13.67 -3.02 13.34 -2 13 C-0.99782936 9.41672247 -0.99782936 9.41672247 -2 6 C-1.34 6 -0.68 6 0 6 C-0.2784375 4.7934375 -0.2784375 4.7934375 -0.5625 3.5625 C-0.706875 2.716875 -0.85125 1.87125 -1 1 C-0.67 0.67 -0.34 0.34 0 0 Z " fill="#F2F3EE" transform="translate(359,681)"/>
<path d="M0 0 C0.99 0.33 1.98 0.66 3 1 C3.29296875 7.0546875 3.29296875 7.0546875 3 9 C2.01 9.66 1.02 10.32 0 11 C-1.19232613 13.05003955 -1.19232613 13.05003955 -2 15 C-3.23922223 11.28233332 -2.57018942 9.56110463 -1.5625 5.8125 C-1.13130859 4.18248047 -1.13130859 4.18248047 -0.69140625 2.51953125 C-0.46324219 1.68808594 -0.23507812 0.85664063 0 0 Z " fill="#E2E2DE" transform="translate(569,316)"/>
<path d="M0 0 C3.63 0.33 7.26 0.66 11 1 C11 1.33 11 1.66 11 2 C9.35 2 7.7 2 6 2 C6 2.66 6 3.32 6 4 C2.37 4 -1.26 4 -5 4 C-5 3.34 -5 2.68 -5 2 C-3.35 2 -1.7 2 0 2 C0 1.34 0 0.68 0 0 Z " fill="#252623" transform="translate(568,1099)"/>
<path d="M0 0 C0.33 0 0.66 0 1 0 C0.67 6.93 0.34 13.86 0 21 C-0.33 21 -0.66 21 -1 21 C-1.2165625 19.39125 -1.2165625 19.39125 -1.4375 17.75 C-1.86644327 14.270268 -1.86644327 14.270268 -2.58984375 12.05859375 C-3.09209269 9.5377824 -2.72571627 7.80176948 -2.125 5.3125 C-1.94195313 4.52488281 -1.75890625 3.73726563 -1.5703125 2.92578125 C-1 1 -1 1 0 0 Z " fill="#DCDDD9" transform="translate(580,105)"/>
<path d="M0 0 C2.9719385 1.12451727 5.33440687 2.22293791 8 4 C8 4.66 8 5.32 8 6 C5.69 6 3.38 6 1 6 C1 5.34 1 4.68 1 4 C0.01 4.33 -0.98 4.66 -2 5 C-2.33 4.34 -2.66 3.68 -3 3 C-2.01 3 -1.02 3 0 3 C0 2.01 0 1.02 0 0 Z " fill="#10110F" transform="translate(617,1017)"/>
<path d="M0 0 C1.485 0.99 1.485 0.99 3 2 C3.29296875 5.2578125 3.29296875 5.2578125 3.1875 9.125 C3.14689453 11.04699219 3.14689453 11.04699219 3.10546875 13.0078125 C3.07066406 13.99523437 3.03585937 14.98265625 3 16 C2.71125 15.38125 2.4225 14.7625 2.125 14.125 C1.06279958 11.86674235 1.06279958 11.86674235 -1 10 C-0.9765625 7.6171875 -0.9765625 7.6171875 -0.625 4.875 C-0.51414062 3.96492187 -0.40328125 3.05484375 -0.2890625 2.1171875 C-0.19367188 1.41851563 -0.09828125 0.71984375 0 0 Z " fill="#DCDDD8" transform="translate(388,975)"/>
<path d="M0 0 C0.33 0 0.66 0 1 0 C1.16682272 4.92127034 1.24828052 8.50343896 -1 13 C-1.66 12.67 -2.32 12.34 -3 12 C-3 8.37 -3 4.74 -3 1 C-2.67 1.66 -2.34 2.32 -2 3 C-1.34 3 -0.68 3 0 3 C0 2.01 0 1.02 0 0 Z " fill="#F3F4EE" transform="translate(408,940)"/>
<path d="M0 0 C0.33 0 0.66 0 1 0 C1.33 1.98 1.66 3.96 2 6 C2.99 5.67 3.98 5.34 5 5 C5 9.95 5 14.9 5 20 C4.67 20 4.34 20 4 20 C3.67 16.37 3.34 12.74 3 9 C2.01 9.33 1.02 9.66 0 10 C0 6.7 0 3.4 0 0 Z " fill="#E5E6DE" transform="translate(514,719)"/>
<path d="M0 0 C2.02350324 3.03525486 2.32124018 4.19426202 2.625 7.6875 C2.69976562 8.49574219 2.77453125 9.30398438 2.8515625 10.13671875 C2.92503906 11.05904297 2.92503906 11.05904297 3 12 C2.01 12.33 1.02 12.66 0 13 C-0.38885039 11.21128822 -0.76069196 9.41887126 -1.125 7.625 C-1.33382813 6.62726563 -1.54265625 5.62953125 -1.7578125 4.6015625 C-1.83773438 3.74304688 -1.91765625 2.88453125 -2 2 C-1.34 1.34 -0.68 0.68 0 0 Z " fill="#222320" transform="translate(362,269)"/>
<path d="M0 0 C0.66 0.66 1.32 1.32 2 2 C1.9765625 4.6015625 1.9765625 4.6015625 1.625 7.625 C1.51414062 8.62789062 1.40328125 9.63078125 1.2890625 10.6640625 C1.19367187 11.43492187 1.09828125 12.20578125 1 13 C0.01 12.67 -0.98 12.34 -2 12 C-2.33 8.7 -2.66 5.4 -3 2 C-2.34 2 -1.68 2 -1 2 C-0.67 1.34 -0.34 0.68 0 0 Z " fill="#DBDDD7" transform="translate(563,239)"/>
<path d="M0 0 C0.33 0 0.66 0 1 0 C1.22370596 2.20682907 1.42830391 4.41559973 1.625 6.625 C1.74101562 7.85476562 1.85703125 9.08453125 1.9765625 10.3515625 C2.00034163 14.05318114 1.37441976 16.59017997 0 20 C-0.33 20 -0.66 20 -1 20 C-1.02712351 17.60408962 -1.0468982 15.20849043 -1.0625 12.8125 C-1.07087891 12.13896484 -1.07925781 11.46542969 -1.08789062 10.77148438 C-1.10606538 7.04565869 -0.89299392 3.6211958 0 0 Z " fill="#1A1C18" transform="translate(343,151)"/>
<path d="M0 0 C0.99 0 1.98 0 3 0 C3.24979445 1.91408757 3.47408014 3.83151611 3.6875 5.75 C3.87892578 7.35101563 3.87892578 7.35101563 4.07421875 8.984375 C4 12 4 12 1 16 C0.67 10.72 0.34 5.44 0 0 Z " fill="#1D1E1B" transform="translate(321,120)"/>
<path d="M0 0 C1.07636719 0.00322266 2.15273438 0.00644531 3.26171875 0.00976562 C4.38964844 0.01814453 5.51757812 0.02652344 6.6796875 0.03515625 C7.81535156 0.03966797 8.95101562 0.04417969 10.12109375 0.04882812 C12.93234388 0.0606401 15.7434898 0.07711118 18.5546875 0.09765625 C18.5546875 0.42765625 18.5546875 0.75765625 18.5546875 1.09765625 C18.00006836 1.1227124 17.44544922 1.14776855 16.87402344 1.17358398 C14.35069907 1.28993552 11.82771214 1.41248379 9.3046875 1.53515625 C7.99564453 1.59413086 7.99564453 1.59413086 6.66015625 1.65429688 C5.81582031 1.69619141 4.97148438 1.73808594 4.1015625 1.78125 C3.32651367 1.81790771 2.55146484 1.85456543 1.75292969 1.89233398 C-0.45761181 2.02349648 -0.45761181 2.02349648 -2.54199219 2.74243164 C-4.4453125 3.09765625 -4.4453125 3.09765625 -7.4453125 1.09765625 C-4.83580014 -0.20709993 -2.91829965 -0.01535947 0 0 Z " fill="#E9ECE6" transform="translate(672.4453125,1036.90234375)"/>
<path d="M0 0 C0.99 0.33 1.98 0.66 3 1 C2.125 4.875 2.125 4.875 1 6 C0.76346477 8.52596259 0.57826308 11.03107207 0.4375 13.5625 C0.39431641 14.27341797 0.35113281 14.98433594 0.30664062 15.71679688 C0.20028223 17.47761912 0.09961154 19.2387832 0 21 C-0.33 21 -0.66 21 -1 21 C-1.02888146 17.68751813 -1.04675799 14.37506833 -1.0625 11.0625 C-1.07087891 10.11697266 -1.07925781 9.17144531 -1.08789062 8.19726562 C-1.09111328 7.29814453 -1.09433594 6.39902344 -1.09765625 5.47265625 C-1.10289307 4.64000244 -1.10812988 3.80734863 -1.11352539 2.94946289 C-1 1 -1 1 0 0 Z " fill="#E9EBE3" transform="translate(486,912)"/>
<path d="M0 0 C0.33 0 0.66 0 1 0 C1 4.62 1 9.24 1 14 C0.01 14.495 0.01 14.495 -1 15 C-1.22304441 13.25181409 -1.4278645 11.50129677 -1.625 9.75 C-1.74101562 8.77546875 -1.85703125 7.8009375 -1.9765625 6.796875 C-2.00112537 3.86570607 -1.5312717 2.45471036 0 0 Z " fill="#141513" transform="translate(356,319)"/>
<path d="M0 0 C1.32 0 2.64 0 4 0 C4.28875 0.61875 4.5775 1.2375 4.875 1.875 C5.93720042 4.13325765 5.93720042 4.13325765 8 6 C5.03 6 2.06 6 -1 6 C-1.33 5.34 -1.66 4.68 -2 4 C-1.34 4 -0.68 4 0 4 C0 2.68 0 1.36 0 0 Z " fill="#121310" transform="translate(553,1097)"/>
<path d="M0 0 C3.3 1.65 6.6 3.3 10 5 C6 7 6 7 3 7 C3 6.01 3 5.02 3 4 C2.01 4.33 1.02 4.66 0 5 C-0.33 4.01 -0.66 3.02 -1 2 C-0.67 1.34 -0.34 0.68 0 0 Z " fill="#ECEDE7" transform="translate(581,1020)"/>
<path d="M0 0 C0.86625 0.495 0.86625 0.495 1.75 1 C4.19883862 2.27075898 4.19883862 2.27075898 8 2 C7.67 3.32 7.34 4.64 7 6 C7.66 6 8.32 6 9 6 C8.67 6.66 8.34 7.32 8 8 C4.7 6.35 1.4 4.7 -2 3 C-1.34 2.67 -0.68 2.34 0 2 C0 1.34 0 0.68 0 0 Z M8 4 C8.66 4 9.32 4 10 4 C9.67 4.66 9.34 5.32 9 6 C8.67 5.34 8.34 4.68 8 4 Z " fill="#E3E5DD" transform="translate(619,1014)"/>
<path d="M0 0 C2.97 0.495 2.97 0.495 6 1 C5.01 2.485 5.01 2.485 4 4 C3.67 4.66 3.34 5.32 3 6 C-1.29 5.67 -5.58 5.34 -10 5 C-10 4.67 -10 4.34 -10 4 C-5.545 3.505 -5.545 3.505 -1 3 C-0.67 2.01 -0.34 1.02 0 0 Z " fill="#212220" transform="translate(709,1049)"/>
<path d="M0 0 C0.33 0 0.66 0 1 0 C0.67 3.63 0.34 7.26 0 11 C-0.99 10.67 -1.98 10.34 -3 10 C-3.33 7.69 -3.66 5.38 -4 3 C-3.01 2.67 -2.02 2.34 -1 2 C-0.67 1.34 -0.34 0.68 0 0 Z " fill="#E9EAE4" transform="translate(360,823)"/>
<path d="M0 0 C0.33 0 0.66 0 1 0 C1.41626139 2.60238237 1.80854441 5.20465765 2.1875 7.8125 C2.30802734 8.55048828 2.42855469 9.28847656 2.55273438 10.04882812 C3.32199134 15.53288581 3.32199134 15.53288581 1.61328125 18.01171875 C0 19 0 19 -1 19 C-0.67 12.73 -0.34 6.46 0 0 Z " fill="#C5C6C0" transform="translate(510,762)"/>
<path d="M0 0 C1.32 0 2.64 0 4 0 C3.54965877 1.62723299 3.08944646 3.25173664 2.625 4.875 C2.36976563 5.77992188 2.11453125 6.68484375 1.8515625 7.6171875 C1 10 1 10 -1 12 C-2.09898702 8.70303895 -1.87124444 7.59505097 -1.0625 4.3125 C-0.86785156 3.50425781 -0.67320312 2.69601562 -0.47265625 1.86328125 C-0.31667969 1.24839844 -0.16070312 0.63351562 0 0 Z " fill="#ECEFE8" transform="translate(512,485)"/>
<path d="M0 0 C1.32 0 2.64 0 4 0 C4.66 0.66 5.32 1.32 6 2 C6.99 2.66 7.98 3.32 9 4 C5.535 5.485 5.535 5.485 2 7 C0 5 0 5 -0.125 2.375 C-0.08375 1.59125 -0.0425 0.8075 0 0 Z " fill="#141613" transform="translate(702,1103)"/>
<path d="M0 0 C1.43655854 -0.08131463 2.8744483 -0.13933559 4.3125 -0.1875 C5.51326172 -0.23970703 5.51326172 -0.23970703 6.73828125 -0.29296875 C9.47851584 0.06198392 10.29171079 0.89366282 12 3 C10.56465159 3.2226746 9.12654475 3.42761906 7.6875 3.625 C6.88699219 3.74101563 6.08648438 3.85703125 5.26171875 3.9765625 C3 4 3 4 0 2 C0 1.34 0 0.68 0 0 Z " fill="#E3E5DC" transform="translate(610,1096)"/>
<path d="M0 0 C0 0.66 0 1.32 0 2 C-2.64 2.33 -5.28 2.66 -8 3 C-8 3.99 -8 4.98 -8 6 C-9.32 5.34 -10.64 4.68 -12 4 C-12 3.01 -12 2.02 -12 1 C-10.37512529 0.83211627 -8.75009558 0.66573213 -7.125 0.5 C-6.22007812 0.4071875 -5.31515625 0.314375 -4.3828125 0.21875 C-2 0 -2 0 0 0 Z " fill="#F1F2ED" transform="translate(613,1003)"/>
<path d="M0 0 C1.65 0 3.3 0 5 0 C5.66 1.32 6.32 2.64 7 4 C5.329375 4.2165625 5.329375 4.2165625 3.625 4.4375 C0.17857953 4.78372035 0.17857953 4.78372035 -2 6 C-2.33 5.01 -2.66 4.02 -3 3 C-2.34 3 -1.68 3 -1 3 C-0.67 2.01 -0.34 1.02 0 0 Z " fill="#E5E6E0" transform="translate(416,921)"/>
<path d="M0 0 C0.33 0 0.66 0 1 0 C1 5.61 1 11.22 1 17 C0.67 17 0.34 17 0 17 C-0.33 14.36 -0.66 11.72 -1 9 C-1.33 9 -1.66 9 -2 9 C-2.125 5.625 -2.125 5.625 -2 2 C-1.34 1.34 -0.68 0.68 0 0 Z " fill="#E2E3DB" transform="translate(500,612)"/>
<path d="M0 0 C0.33 0.66 0.66 1.32 1 2 C0.0625 4.125 0.0625 4.125 -1 6 C0.32 5.67 1.64 5.34 3 5 C3 5.66 3 6.32 3 7 C2.34 7 1.68 7 1 7 C1 7.99 1 8.98 1 10 C-0.32 9.34 -1.64 8.68 -3 8 C-2.74438677 5.6568787 -2.40729228 3.32156597 -2 1 C-1.34 0.67 -0.68 0.34 0 0 Z " fill="#242521" transform="translate(660,1065)"/>
<path d="M0 0 C0 1.65 0 3.3 0 5 C-2.64 5 -5.28 5 -8 5 C-7.67 3.68 -7.34 2.36 -7 1 C-4.50935112 0.31292445 -2.62113708 0 0 0 Z " fill="#ECEEE6" transform="translate(550,472)"/>
<path d="M0 0 C3 3 3 3 3.375 6.4375 C3 10 3 10 0 14 C0 9.38 0 4.76 0 0 Z " fill="#F5F6EF" transform="translate(576,103)"/>
<path d="M0 0 C0.99 0.33 1.98 0.66 3 1 C2.67 2.32 2.34 3.64 2 5 C2.66 5.33 3.32 5.66 4 6 C1.75 6.75 1.75 6.75 -1 7 C-3.3125 5.1875 -3.3125 5.1875 -5 3 C-5 2.34 -5 1.68 -5 1 C-4.34 1 -3.68 1 -3 1 C-3 1.66 -3 2.32 -3 3 C-2.34 3 -1.68 3 -1 3 C-0.67 2.01 -0.34 1.02 0 0 Z " fill="#E4E6DE" transform="translate(707,1080)"/>
<path d="M0 0 C1.98 0.66 3.96 1.32 6 2 C6 1.34 6 0.68 6 0 C7.32 0.33 8.64 0.66 10 1 C9.67 2.65 9.34 4.3 9 6 C7.68397477 5.38245741 6.37226444 4.75571258 5.0625 4.125 C4.33160156 3.77695312 3.60070312 3.42890625 2.84765625 3.0703125 C1 2 1 2 0 0 Z " fill="#151613" transform="translate(563,1008)"/>
<path d="M0 0 C0.33 0 0.66 0 1 0 C1.12375 1.11375 1.2475 2.2275 1.375 3.375 C1.6465813 7.03103677 1.6465813 7.03103677 4 9 C4.3125 12 4.3125 12 4 15 C3.01 15.66 2.02 16.32 1 17 C0.875 11.25 0.875 11.25 2 9 C1.34 9 0.68 9 0 9 C0 6.03 0 3.06 0 0 Z " fill="#161816" transform="translate(495,704)"/>
<path d="M0 0 C0.66 0.33 1.32 0.66 2 1 C1.34 5.62 0.68 10.24 0 15 C-2.27608233 11.5858765 -2.16488977 10.84289339 -1.6875 6.9375 C-1.58824219 6.05964844 -1.48898437 5.18179688 -1.38671875 4.27734375 C-1 2 -1 2 0 0 Z " fill="#191A18" transform="translate(588,213)"/>
<path d="M0 0 C0.53625 0.37125 1.0725 0.7425 1.625 1.125 C1.295 1.785 0.965 2.445 0.625 3.125 C-2.345 3.125 -5.315 3.125 -8.375 3.125 C-8.375 2.465 -8.375 1.805 -8.375 1.125 C-2.95961538 -1.09038462 -2.95961538 -1.09038462 0 0 Z " fill="#F5F5F0" transform="translate(628.375,1094.875)"/>
<path d="M0 0 C1.5625 1.25 1.5625 1.25 3 3 C2.6875 5.1875 2.6875 5.1875 2 7 C1.34 7 0.68 7 0 7 C-0.33 8.65 -0.66 10.3 -1 12 C-3 10 -3 10 -3.125 6.875 C-3.08375 5.92625 -3.0425 4.9775 -3 4 C-2.01 4.33 -1.02 4.66 0 5 C0 3.35 0 1.7 0 0 Z " fill="#161713" transform="translate(726,1057)"/>
<path d="M0 0 C0.99 0.33 1.98 0.66 3 1 C2.67 1.66 2.34 2.32 2 3 C2.66 3 3.32 3 4 3 C4 2.34 4 1.68 4 1 C4.66 1 5.32 1 6 1 C6 2.65 6 4.3 6 6 C3.03 5.01 0.06 4.02 -3 3 C-2.01 2.67 -1.02 2.34 0 2 C0 1.34 0 0.68 0 0 Z " fill="#DFE0DA" transform="translate(635,1022)"/>
<path d="M0 0 C0.33 0 0.66 0 1 0 C1.33 3.96 1.66 7.92 2 12 C1.01 12 0.02 12 -1 12 C-1.92470553 7.28400182 -2.22923777 4.32734391 0 0 Z " fill="#EFEFEA" transform="translate(370,289)"/>
<path d="M0 0 C0.33 0 0.66 0 1 0 C1.66 3.96 2.32 7.92 3 12 C2.34 12 1.68 12 1 12 C0.67 13.32 0.34 14.64 0 16 C-0.19672365 14.27185839 -0.38196799 12.54240803 -0.5625 10.8125 C-0.71912109 9.36810547 -0.71912109 9.36810547 -0.87890625 7.89453125 C-0.99758751 5.05766623 -0.67765639 2.74576329 0 0 Z " fill="#212320" transform="translate(339,243)"/>
<path d="M0 0 C0.33 0 0.66 0 1 0 C1.8320582 5.72040011 2.12036664 11.22240116 2 17 C0.01299578 15.35810704 -0.92039017 14.50609104 -1.328125 11.9140625 C-1.30234375 11.15867188 -1.2765625 10.40328125 -1.25 9.625 C-1.22421875 8.83480469 -1.1984375 8.04460937 -1.171875 7.23046875 C-0.98143288 4.75904936 -0.61964403 2.40112063 0 0 Z " fill="#E7E8E3" transform="translate(577,121)"/>
<path d="M0 0 C-0.125 1.875 -0.125 1.875 -1 4 C-4.0625 5.25 -4.0625 5.25 -7 6 C-7 5.34 -7 4.68 -7 4 C-7.66 3.67 -8.32 3.34 -9 3 C-2.25 0 -2.25 0 0 0 Z " fill="#DBDFD7" transform="translate(720,1103)"/>
<path d="M0 0 C-1 2 -1 2 -2.84765625 2.6328125 C-3.57855469 2.79523437 -4.30945313 2.95765625 -5.0625 3.125 C-6.16271484 3.37636719 -6.16271484 3.37636719 -7.28515625 3.6328125 C-7.85105469 3.75398437 -8.41695312 3.87515625 -9 4 C-9 4.66 -9 5.32 -9 6 C-9.66 6 -10.32 6 -11 6 C-10.67 4.35 -10.34 2.7 -10 1 C-6.59437148 0.22157062 -3.49234244 -0.09978121 0 0 Z " fill="#EFF1EB" transform="translate(648,1019)"/>
<path d="M0 0 C0.66 0 1.32 0 2 0 C2 0.66 2 1.32 2 2 C3.32 2.33 4.64 2.66 6 3 C6 3.99 6 4.98 6 6 C5.01 6.33 4.02 6.66 3 7 C1.68 5.68 0.36 4.36 -1 3 C-0.67 2.01 -0.34 1.02 0 0 Z " fill="#E6E7E2" transform="translate(433,992)"/>
<path d="M0 0 C0.99 0 1.98 0 3 0 C4.03039555 4.53374042 4.17766075 5.64467851 2 10 C1.01 7.03 0.02 4.06 -1 1 C-0.67 0.67 -0.34 0.34 0 0 Z " fill="#191A17" transform="translate(499,947)"/>
<path d="M0 0 C0.33 0.99 0.66 1.98 1 3 C1.66 3 2.32 3 3 3 C3.125 5.875 3.125 5.875 3 9 C2.34 9.66 1.68 10.32 1 11 C0.34 10.67 -0.32 10.34 -1 10 C-0.67 6.7 -0.34 3.4 0 0 Z " fill="#141413" transform="translate(560,266)"/>
<path d="M0 0 C2.64 0 5.28 0 8 0 C8 0.99 8 1.98 8 3 C7.01 3 6.02 3 5 3 C5 3.66 5 4.32 5 5 C4.01 4.67 3.02 4.34 2 4 C2.33 3.67 2.66 3.34 3 3 C2.01 2.67 1.02 2.34 0 2 C0 1.34 0 0.68 0 0 Z " fill="#1C1C18" transform="translate(661,1054)"/>
<path d="M0 0 C1.09651823 3.41139003 0.94215473 6.20655581 0.5625 9.75 C0.40974609 11.22726562 0.40974609 11.22726562 0.25390625 12.734375 C0.12822266 13.85585938 0.12822266 13.85585938 0 15 C-0.33 15 -0.66 15 -1 15 C-1.33 10.71 -1.66 6.42 -2 2 C-1.34 2 -0.68 2 0 2 C0 1.34 0 0.68 0 0 Z " fill="#DBDCD7" transform="translate(384,825)"/>
<path d="M0 0 C0.639375 0.33 1.27875 0.66 1.9375 1 C3.76794567 2.07271225 3.76794567 2.07271225 5 2 C4.67 4.31 4.34 6.62 4 9 C3.01 8.67 2.02 8.34 1 8 C0.67 5.36 0.34 2.72 0 0 Z " fill="#151615" transform="translate(358,348)"/>
<path d="M0 0 C0.99 0.33 1.98 0.66 3 1 C3.625 3.375 3.625 3.375 4 6 C3.34 6.66 2.68 7.32 2 8 C1.01 7.67 0.02 7.34 -1 7 C-0.67 4.69 -0.34 2.38 0 0 Z " fill="#F4F5F0" transform="translate(551,287)"/>
<path d="M0 0 C0.66 0 1.32 0 2 0 C2.33 1.98 2.66 3.96 3 6 C1.35 6.33 -0.3 6.66 -2 7 C-2.66 5.68 -3.32 4.36 -4 3 C-3.34 2.67 -2.68 2.34 -2 2 C-1.34 2.33 -0.68 2.66 0 3 C0 2.01 0 1.02 0 0 Z " fill="#141511" transform="translate(695,1091)"/>
<path d="M0 0 C0.66 0 1.32 0 2 0 C1.67 2.64 1.34 5.28 1 8 C0.34 8 -0.32 8 -1 8 C-1.66 8.66 -2.32 9.32 -3 10 C-3.33 8.68 -3.66 7.36 -4 6 C-3.34 5.67 -2.68 5.34 -2 5 C-1.27840576 3.35636866 -0.60648579 1.68949614 0 0 Z " fill="#171813" transform="translate(358,1073)"/>
<path d="M0 0 C4.75 0.75 4.75 0.75 7 3 C6.67 3.66 6.34 4.32 6 5 C2.62537285 4.45276317 0.91765 3.9451 -2 2 C-1.34 2 -0.68 2 0 2 C0 1.34 0 0.68 0 0 Z " fill="#D1D3CE" transform="translate(679,1063)"/>
<path d="M0 0 C1.32 0.66 2.64 1.32 4 2 C3.67 3.65 3.34 5.3 3 7 C0.03 6.505 0.03 6.505 -3 6 C-2 4 -1 2 0 0 Z " fill="#1A1D19" transform="translate(651,1048)"/>
<path d="M0 0 C2.0625 0.4375 2.0625 0.4375 4 1 C4.33 2.65 4.66 4.3 5 6 C4.01 6 3.02 6 2 6 C0.3125 3.5 0.3125 3.5 -1 1 C-0.67 0.67 -0.34 0.34 0 0 Z " fill="#DBDDD6" transform="translate(529,957)"/>
<path d="M0 0 C1.32 0 2.64 0 4 0 C4 0.66 4 1.32 4 2 C4.99 2.33 5.98 2.66 7 3 C6.34 4.65 5.68 6.3 5 8 C4.34 7.34 3.68 6.68 3 6 C3 4.68 3 3.36 3 2 C2.34 2 1.68 2 1 2 C0.67 3.32 0.34 4.64 0 6 C0 4.02 0 2.04 0 0 Z " fill="#181916" transform="translate(534,478)"/>
<path d="M0 0 C0.66 0 1.32 0 2 0 C1.71890887 1.64767247 1.42481474 3.29313145 1.125 4.9375 C0.96257813 5.85402344 0.80015625 6.77054688 0.6328125 7.71484375 C0.42398438 8.46894531 0.21515625 9.22304687 0 10 C-0.99 10.495 -0.99 10.495 -2 11 C-3.14947895 7.44706507 -3.0868937 6.20023331 -1.5625 2.6875 C-1.046875 1.800625 -0.53125 0.91375 0 0 Z " fill="#DFE0D9" transform="translate(733,1084)"/>
<path d="M0 0 C2.04296875 0.4609375 2.04296875 0.4609375 4.1875 1.375 C4.90292969 1.67148438 5.61835937 1.96796875 6.35546875 2.2734375 C7.16951172 2.63308594 7.16951172 2.63308594 8 3 C6.68 3.99 5.36 4.98 4 6 C0.535 4.02 0.535 4.02 -3 2 C-2.01 1.34 -1.02 0.68 0 0 Z " fill="#CFD2CD" transform="translate(660,1075)"/>
<path d="M0 0 C1.98 0.99 3.96 1.98 6 3 C5.67 3.99 5.34 4.98 5 6 C2.525 5.01 2.525 5.01 0 4 C0 2.68 0 1.36 0 0 Z " fill="#11130E" transform="translate(563,986)"/>
<path d="M0 0 C0.66 0 1.32 0 2 0 C2 0.66 2 1.32 2 2 C2.66 2 3.32 2 4 2 C4.33 1.34 4.66 0.68 5 0 C5 0.66 5 1.32 5 2 C5.99 2 6.98 2 8 2 C7.34 3.32 6.68 4.64 6 6 C2.535 4.02 2.535 4.02 -1 2 C-0.67 1.34 -0.34 0.68 0 0 Z " fill="#E8EBE4" transform="translate(543,970)"/>
<path d="M0 0 C2.01136276 2.55991624 3.62845496 5.04590299 5 8 C4.01 9.485 4.01 9.485 3 11 C2.67 9.35 2.34 7.7 2 6 C1.01 5.67 0.02 5.34 -1 5 C-0.67 3.35 -0.34 1.7 0 0 Z " fill="#E4E6E0" transform="translate(502,958)"/>
<path d="M0 0 C0.33 0 0.66 0 1 0 C1 2.31 1 4.62 1 7 C0.34 7 -0.32 7 -1 7 C-1 9.64 -1 12.28 -1 15 C-1.33 15 -1.66 15 -2 15 C-2.05406122 13.06280622 -2.09282025 11.12518079 -2.125 9.1875 C-2.14820313 8.10855469 -2.17140625 7.02960937 -2.1953125 5.91796875 C-2 3 -2 3 0 0 Z " fill="#E8E8E3" transform="translate(393,901)"/>
<path d="M0 0 C0.99 0 1.98 0 3 0 C3.2226746 1.43534841 3.42761906 2.87345525 3.625 4.3125 C3.74101562 5.11300781 3.85703125 5.91351562 3.9765625 6.73828125 C4 9 4 9 2 12 C1.855625 10.948125 1.71125 9.89625 1.5625 8.8125 C1.12473034 5.84539451 0.62195134 2.93205634 0 0 Z " fill="#EBEDE4" transform="translate(356,535)"/>
<path d="M0 0 C0.33 0 0.66 0 1 0 C1.25 2.75 1.25 2.75 1 6 C-1 8.375 -1 8.375 -3 10 C-3.23226952 6.59338044 -3.35720302 4.59016151 -1.5625 1.625 C-0.7890625 0.820625 -0.7890625 0.820625 0 0 Z " fill="#F4F6EE" transform="translate(550,456)"/>
<path d="M0 0 C0.66 0.33 1.32 0.66 2 1 C1.25749403 5.08378283 0.17076699 9.01939223 -1 13 C-1.33 13 -1.66 13 -2 13 C-2.05447047 11.58376784 -2.09300508 10.16691809 -2.125 8.75 C-2.14820313 7.96109375 -2.17140625 7.1721875 -2.1953125 6.359375 C-1.9828378 3.79268059 -1.28654105 2.2083933 0 0 Z " fill="#EDEFE9" transform="translate(736,1068)"/>
<path d="M0 0 C0.93065133 2.60582371 1.14917407 3.64198224 0.0625 6.25 C-0.4634375 7.11625 -0.4634375 7.11625 -1 8 C-1 7.34 -1 6.68 -1 6 C-2.32 6 -3.64 6 -5 6 C-5.33 4.35 -5.66 2.7 -6 1 C-5.34 1 -4.68 1 -4 1 C-3.67 1.66 -3.34 2.32 -3 3 C-2.34 3 -1.68 3 -1 3 C-0.67 2.01 -0.34 1.02 0 0 Z " fill="#DFE0DA" transform="translate(362,994)"/>
<path d="M0 0 C0.33 0 0.66 0 1 0 C1 5.28 1 10.56 1 16 C0.67 16 0.34 16 0 16 C0 12.37 0 8.74 0 5 C-0.66 5 -1.32 5 -2 5 C-1.125 1.125 -1.125 1.125 0 0 Z " fill="#C8C9C3" transform="translate(410,932)"/>
<path d="M0 0 C2.10814567 4.21629134 2.17700355 6.39790775 2 11 C1.01 10.34 0.02 9.68 -1 9 C-0.67 6.03 -0.34 3.06 0 0 Z " fill="#E1E3DE" transform="translate(490,923)"/>
<path d="M0 0 C0.33 0 0.66 0 1 0 C1.14285714 7.42857143 1.14285714 7.42857143 0 11 C-0.66 11 -1.32 11 -2 11 C-2.28571429 3.57142857 -2.28571429 3.57142857 0 0 Z " fill="#EAEBE6" transform="translate(337,713)"/>
<path d="M0 0 C0.66 0 1.32 0 2 0 C2.69289369 3.72430357 3.11144596 7.21083746 3 11 C2.34 11 1.68 11 1 11 C0.67 7.37 0.34 3.74 0 0 Z " fill="#D7D8D1" transform="translate(346,650)"/>
<path d="M0 0 C0.66 0.33 1.32 0.66 2 1 C1.34 3.97 0.68 6.94 0 10 C-2.5654594 7.4345406 -2.54046087 5.52313332 -3 2 C-2.01 2.495 -2.01 2.495 -1 3 C-0.67 2.01 -0.34 1.02 0 0 Z " fill="#1C1C1A" transform="translate(362,507)"/>
<path d="M0 0 C0.33 0 0.66 0 1 0 C1.33 1.98 1.66 3.96 2 6 C-0.31 6.33 -2.62 6.66 -5 7 C-4.67 5.35 -4.34 3.7 -4 2 C-3.01 2.33 -2.02 2.66 -1 3 C-0.67 2.01 -0.34 1.02 0 0 Z " fill="#F6F7EE" transform="translate(549,466)"/>
<path d="M0 0 C0.66 0 1.32 0 2 0 C2 2.97 2 5.94 2 9 C1.01 9 0.02 9 -1 9 C-0.67 6.03 -0.34 3.06 0 0 Z " fill="#0E0F0C" transform="translate(322,111)"/>
<path d="M0 0 C0.33 0 0.66 0 1 0 C1 1.65 1 3.3 1 5 C1.66 5 2.32 5 3 5 C2.67 7.31 2.34 9.62 2 12 C1.34 11.67 0.68 11.34 0 11 C0 7.37 0 3.74 0 0 Z " fill="#151514" transform="translate(584,53)"/>
<path d="M0 0 C2.31 0 4.62 0 7 0 C7 0.66 7 1.32 7 2 C7.66 2 8.32 2 9 2 C8.67 2.99 8.34 3.98 8 5 C4.5625 4.1875 4.5625 4.1875 1 3 C0.67 2.01 0.34 1.02 0 0 Z " fill="#E5E5DF" transform="translate(326,7)"/>
<path d="M0 0 C4 4.75 4 4.75 4 7 C2.35 7 0.7 7 -1 7 C-0.67 4.69 -0.34 2.38 0 0 Z " fill="#1D1E1A" transform="translate(672,1090)"/>
<path d="M0 0 C3.125 0.375 3.125 0.375 6 1 C5.01 1.495 5.01 1.495 4 2 C4 2.66 4 3.32 4 4 C4.99 4.33 5.98 4.66 7 5 C0.25 4.25 0.25 4.25 -2 2 C-1.34 1.34 -0.68 0.68 0 0 Z " fill="#D2D4CE" transform="translate(395,1087)"/>
<path d="M0 0 C1.4540625 0.0309375 1.4540625 0.0309375 2.9375 0.0625 C2.6075 1.7125 2.2775 3.3625 1.9375 5.0625 C0.2875 4.7325 -1.3625 4.4025 -3.0625 4.0625 C-3.3925 3.0725 -3.7225 2.0825 -4.0625 1.0625 C-3.0625 0.0625 -3.0625 0.0625 0 0 Z " fill="#121310" transform="translate(716.0625,1050.9375)"/>
<path d="M0 0 C2.49361571 1.20381448 4.68143083 2.45428722 7 4 C6.34 4.66 5.68 5.32 5 6 C4.01 6 3.02 6 2 6 C2 5.34 2 4.68 2 4 C0.68 3.67 -0.64 3.34 -2 3 C-1.34 2.67 -0.68 2.34 0 2 C0 1.34 0 0.68 0 0 Z " fill="#0E0F0B" transform="translate(629,1039)"/>
<path d="M0 0 C0.33 0.66 0.66 1.32 1 2 C1.66 2 2.32 2 3 2 C3 2.66 3 3.32 3 4 C5.97 4.495 5.97 4.495 9 5 C7.375 6.1875 7.375 6.1875 5 7 C1.75 5.625 1.75 5.625 -1 4 C-0.67 2.68 -0.34 1.36 0 0 Z " fill="#E9E9E7" transform="translate(587,996)"/>
<path d="M0 0 C1.125 1.625 1.125 1.625 2 4 C1.125 7.25 1.125 7.25 0 10 C-2.72727273 5.90909091 -2.72727273 5.90909091 -3 3 C-1.5625 1.25 -1.5625 1.25 0 0 Z " fill="#121411" transform="translate(498,937)"/>
<path d="M0 0 C0.33 0 0.66 0 1 0 C1.25028811 1.58013217 1.47440946 3.16442306 1.6875 4.75 C1.87892578 6.07257812 1.87892578 6.07257812 2.07421875 7.421875 C1.98397191 10.55676517 1.07384637 11.71823587 -1 14 C-1.18451025 4.58997722 -1.18451025 4.58997722 0 0 Z " fill="#D9DAD4" transform="translate(507,822)"/>
<path d="M0 0 C0.99 0 1.98 0 3 0 C3.08159574 4.16138263 2.98248524 7.9472484 2 12 C1.67 12 1.34 12 1 12 C0.67 8.04 0.34 4.08 0 0 Z " fill="#D6D6D1" transform="translate(380,815)"/>
<path d="M0 0 C0.66 0 1.32 0 2 0 C2.05399736 1.45792884 2.09279177 2.91642712 2.125 4.375 C2.14820313 5.18710937 2.17140625 5.99921875 2.1953125 6.8359375 C2 9 2 9 0 11 C-1.28571429 3.57142857 -1.28571429 3.57142857 0 0 Z " fill="#20211F" transform="translate(346,280)"/>
<path d="M0 0 C-0.66 1.32 -1.32 2.64 -2 4 C-3.98 3.01 -5.96 2.02 -8 1 C-4.93251126 -0.86240388 -3.40254489 -1.2151946 0 0 Z " fill="#E1E6DF" transform="translate(727,1051)"/>
<path d="M0 0 C2 3.75 2 3.75 2 6 C1.34 6 0.68 6 0 6 C0.33 7.65 0.66 9.3 1 11 C0.01 11.66 -0.98 12.32 -2 13 C-1.48041715 8.62065881 -0.94324258 4.31196609 0 0 Z " fill="#3D3E3B" transform="translate(358,1010)"/>
<path d="M0 0 C1.32 0 2.64 0 4 0 C4 1.65 4 3.3 4 5 C2.02 5.99 2.02 5.99 0 7 C0 4.69 0 2.38 0 0 Z " fill="#161714" transform="translate(376,354)"/>
<path d="M0 0 C0.33 0 0.66 0 1 0 C1.33 4.29 1.66 8.58 2 13 C1.01 12.34 0.02 11.68 -1 11 C-0.67 7.37 -0.34 3.74 0 0 Z " fill="#292A28" transform="translate(562,253)"/>
<path d="M0 0 C1.32 0 2.64 0 4 0 C3.34 2.97 2.68 5.94 2 9 C1.67 9 1.34 9 1 9 C0.67 6.03 0.34 3.06 0 0 Z " fill="#E3E3DE" transform="translate(352,212)"/>
<path d="M0 0 C0.33 0 0.66 0 1 0 C1.33 2.97 1.66 5.94 2 9 C1.01 9.33 0.02 9.66 -1 10 C-1.125 3.375 -1.125 3.375 0 0 Z " fill="#201F1D" transform="translate(347,185)"/>
<path d="M0 0 C1.65 1.32 3.3 2.64 5 4 C4.67 4.99 4.34 5.98 4 7 C3.01 7 2.02 7 1 7 C1 5.68 1 4.36 1 3 C0.34 2.67 -0.32 2.34 -1 2 C-0.67 1.34 -0.34 0.68 0 0 Z " fill="#1C1D1A" transform="translate(600,11)"/>
<path d="M0 0 C1.98 0 3.96 0 6 0 C6 0.99 6 1.98 6 3 C5.01 3.495 5.01 3.495 4 4 C3.34444881 6.52733235 3.34444881 6.52733235 3 9 C2.67 9 2.34 9 2 9 C1.855625 7.88625 1.71125 6.7725 1.5625 5.625 C1.21627965 2.17857953 1.21627965 2.17857953 0 0 Z " fill="#292A25" transform="translate(712,1072)"/>
<path d="M0 0 C1.98 0.66 3.96 1.32 6 2 C6 2.99 6 3.98 6 5 C3.03 4.505 3.03 4.505 0 4 C0 2.68 0 1.36 0 0 Z " fill="#1E201D" transform="translate(586,1000)"/>
<path d="M0 0 C1.00324642 3.1212111 0.91667076 4.88331941 0 8 C-0.34578768 9.99788438 -0.68143549 11.99759451 -1 14 C-1.33 14 -1.66 14 -2 14 C-2 10.04 -2 6.08 -2 2 C-1.34 2 -0.68 2 0 2 C0 1.34 0 0.68 0 0 Z " fill="#252722" transform="translate(376,795)"/>
<path d="M0 0 C0.33 0.66 0.66 1.32 1 2 C0.34 2 -0.32 2 -1 2 C-1.33 3.65 -1.66 5.3 -2 7 C-2.99 6.67 -3.98 6.34 -5 6 C-4.1875 3.5625 -4.1875 3.5625 -3 1 C-2.01 0.67 -1.02 0.34 0 0 Z " fill="#EDEFEA" transform="translate(590,7)"/>
<path d="M0 0 C-0.99 0.33 -1.98 0.66 -3 1 C-3.33 1.99 -3.66 2.98 -4 4 C-6.31 3.34 -8.62 2.68 -11 2 C-11 1.67 -11 1.34 -11 1 C-7.26562152 0.12132271 -3.83225427 -0.08912219 0 0 Z " fill="#DEE0DA" transform="translate(445,1113)"/>
<path d="M0 0 C1.65 0 3.3 0 5 0 C5.66 1.32 6.32 2.64 7 4 C4 4 4 4 1.8125 2 C1.214375 1.34 0.61625 0.68 0 0 Z " fill="#1B1B17" transform="translate(647,1089)"/>
<path d="M0 0 C0.99 0.33 1.98 0.66 3 1 C2.60196439 3.88575819 2.20990931 4.82189513 -0.0625 6.75 C-0.701875 7.1625 -1.34125 7.575 -2 8 C-1.125 2.25 -1.125 2.25 0 0 Z " fill="#ECEDE5" transform="translate(680,1084)"/>
<path d="M0 0 C1.32 0.66 2.64 1.32 4 2 C3.67 2.66 3.34 3.32 3 4 C0.69 4 -1.62 4 -4 4 C-4 3.34 -4 2.68 -4 2 C-2.68 2 -1.36 2 0 2 C0 1.34 0 0.68 0 0 Z " fill="#21211D" transform="translate(691,1072)"/>
<path d="M0 0 C0.99 0.99 1.98 1.98 3 3 C2.6875 5.6875 2.6875 5.6875 2 8 C2.66 8 3.32 8 4 8 C4 8.66 4 9.32 4 10 C3.01 9.67 2.02 9.34 1 9 C0.67 6.03 0.34 3.06 0 0 Z " fill="#E8EAE4" transform="translate(415,1005)"/>
<path d="M0 0 C1.32 0.66 2.64 1.32 4 2 C3.01 3.32 2.02 4.64 1 6 C0.01 5.67 -0.98 5.34 -2 5 C-1.34 3.35 -0.68 1.7 0 0 Z " fill="#F1F2EC" transform="translate(545,999)"/>
<path d="M0 0 C3 3.75 3 3.75 3 6 C1 7.625 1 7.625 -1 9 C-1.09765625 2.84765625 -1.09765625 2.84765625 -1 1 C-0.67 0.67 -0.34 0.34 0 0 Z " fill="#F5F5F0" transform="translate(484,742)"/>
<path d="M0 0 C0.66 0.33 1.32 0.66 2 1 C1.34 3.64 0.68 6.28 0 9 C-0.66 8.67 -1.32 8.34 -2 8 C-1.125 1.125 -1.125 1.125 0 0 Z " fill="#E7E9E3" transform="translate(509,497)"/>
<path d="M0 0 C0.99 0.33 1.98 0.66 3 1 C2.67 3.97 2.34 6.94 2 10 C0.0044484 6.00889681 -0.19546065 4.30013434 0 0 Z " fill="#C4C4C0" transform="translate(358,245)"/>
<path d="M0 0 C0.99 0.33 1.98 0.66 3 1 C4.1875 4.0625 4.1875 4.0625 5 7 C3.68 7.33 2.36 7.66 1 8 C0.67 5.36 0.34 2.72 0 0 Z " fill="#191B18" transform="translate(334,226)"/>
<path d="M0 0 C0.66 0 1.32 0 2 0 C2 2.64 2 5.28 2 8 C1.01 8.33 0.02 8.66 -1 9 C-0.67 6.03 -0.34 3.06 0 0 Z " fill="#1F1F1E" transform="translate(329,184)"/>
<path d="M0 0 C0.99 0 1.98 0 3 0 C3.33 1.65 3.66 3.3 4 5 C2.68 5.99 1.36 6.98 0 8 C0 5.36 0 2.72 0 0 Z " fill="#1B1A1A" transform="translate(319,88)"/>
<path d="M0 0 C2 2 2 2 2.1953125 4.1640625 C2.16050781 5.38222656 2.16050781 5.38222656 2.125 6.625 C2.10695313 7.44226563 2.08890625 8.25953125 2.0703125 9.1015625 C2.04710937 9.72804688 2.02390625 10.35453125 2 11 C-0.14208427 7.7868736 -0.59687808 5.78934603 -1 2 C-0.67 1.34 -0.34 0.68 0 0 Z " fill="#262723" transform="translate(600,85)"/>
<path d="M0 0 C0.66 0.99 1.32 1.98 2 3 C1.01 3.495 1.01 3.495 0 4 C-0.33 4.99 -0.66 5.98 -1 7 C-1.99 7.495 -1.99 7.495 -3 8 C-3.75 6.25 -3.75 6.25 -4 4 C-2.0625 1.75 -2.0625 1.75 0 0 Z " fill="#1D1E1B" transform="translate(323,11)"/>
<path d="M0 0 C0.33 0.66 0.66 1.32 1 2 C-0.32 3.32 -1.64 4.64 -3 6 C-3.33 5.34 -3.66 4.68 -4 4 C-4.66 3.67 -5.32 3.34 -6 3 C-4.02 2.01 -2.04 1.02 0 0 Z " fill="#E4E6DD" transform="translate(670,1118)"/>
<path d="M0 0 C2.31 0.33 4.62 0.66 7 1 C6.67 1.99 6.34 2.98 6 4 C3.03 3.505 3.03 3.505 0 3 C0 2.01 0 1.02 0 0 Z " fill="#EEF0E9" transform="translate(564,1119)"/>
<path d="M0 0 C0.33 0 0.66 0 1 0 C1.22174933 1.45635371 1.42698698 2.91522956 1.625 4.375 C1.74101562 5.18710937 1.85703125 5.99921875 1.9765625 6.8359375 C1.98429687 7.55007813 1.99203125 8.26421875 2 9 C1.34 9.66 0.68 10.32 0 11 C-0.84098656 6.98195309 -1.05404945 3.98196457 0 0 Z " fill="#1C1C1B" transform="translate(410,984)"/>
<path d="M0 0 C2.125 0.9375 2.125 0.9375 4 2 C4 2.66 4 3.32 4 4 C2.68 4.33 1.36 4.66 0 5 C0 4.34 0 3.68 0 3 C-0.66 3 -1.32 3 -2 3 C-2 2.34 -2 1.68 -2 1 C-1.34 0.67 -0.68 0.34 0 0 Z " fill="#F5F6EE" transform="translate(521,982)"/>
<path d="M0 0 C0.66 0.66 1.32 1.32 2 2 C2.66 1.34 3.32 0.68 4 0 C5 3 5 3 4 6 C3.01 6 2.02 6 1 6 C0.34 4.35 -0.32 2.7 -1 1 C-0.67 0.67 -0.34 0.34 0 0 Z " fill="#EEEFE9" transform="translate(521,945)"/>
<path d="M0 0 C0.66 0.33 1.32 0.66 2 1 C2.625 3.0625 2.625 3.0625 3 5 C1.02 5.99 1.02 5.99 -1 7 C-1.33 5.35 -1.66 3.7 -2 2 C-1.34 2 -0.68 2 0 2 C0 1.34 0 0.68 0 0 Z " fill="#F6F7F1" transform="translate(388,831)"/>
<path d="M0 0 C0.33 1.32 0.66 2.64 1 4 C0.01 4.495 0.01 4.495 -1 5 C-1.65555119 7.52733235 -1.65555119 7.52733235 -2 10 C-3.4606285 7.35261084 -4 6.10551666 -4 3 C-3.01 2.67 -2.02 2.34 -1 2 C-0.67 1.34 -0.34 0.68 0 0 Z " fill="#DADCD6" transform="translate(358,692)"/>
<path d="M0 0 C0.66 0 1.32 0 2 0 C3.23076923 5.41538462 3.23076923 5.41538462 2.0625 8.375 C1.711875 8.91125 1.36125 9.4475 1 10 C0 3.375 0 3.375 0 0 Z " fill="#ECECE7" transform="translate(335,522)"/>
<path d="M0 0 C0.99 0 1.98 0 3 0 C2.67 2.31 2.34 4.62 2 7 C1.01 6.67 0.02 6.34 -1 6 C-0.67 4.02 -0.34 2.04 0 0 Z " fill="#1E1D1C" transform="translate(578,267)"/>
<path d="M0 0 C0.33 0.66 0.66 1.32 1 2 C1.66 2 2.32 2 3 2 C2.67 3.98 2.34 5.96 2 8 C1.01 8.33 0.02 8.66 -1 9 C-0.67 6.03 -0.34 3.06 0 0 Z " fill="#E8E9E6" transform="translate(591,204)"/>
<path d="M0 0 C0.99 0.33 1.98 0.66 3 1 C3 3.31 3 5.62 3 8 C2.01 8 1.02 8 0 8 C0 5.36 0 2.72 0 0 Z " fill="#CECFCB" transform="translate(569,193)"/>
<path d="M0 0 C2.64 0.33 5.28 0.66 8 1 C5.08235 2.9451 3.37462715 3.45276317 0 4 C0 2.68 0 1.36 0 0 Z " fill="#373836" transform="translate(687,1113)"/>
<path d="M0 0 C-0.33 0.66 -0.66 1.32 -1 2 C-1.66 2 -2.32 2 -3 2 C-3.66 2.66 -4.32 3.32 -5 4 C-5.99 3.67 -6.98 3.34 -8 3 C-8 2.34 -8 1.68 -8 1 C-5.29120665 -0.35439668 -2.99066732 -0.06501451 0 0 Z " fill="#F3F5EF" transform="translate(407,1088)"/>
<path d="M0 0 C0.33 0.66 0.66 1.32 1 2 C1.66 2 2.32 2 3 2 C2.67 4.31 2.34 6.62 2 9 C0 7 0 7 -0.125 3.375 C-0.08375 2.26125 -0.0425 1.1475 0 0 Z " fill="#22231E" transform="translate(374,1018)"/>
<path d="M0 0 C1.32 0 2.64 0 4 0 C4 0.66 4 1.32 4 2 C3.34 2 2.68 2 2 2 C1.67 2.99 1.34 3.98 1 5 C-0.32 4.01 -1.64 3.02 -3 2 C-2.01 2 -1.02 2 0 2 C0 1.34 0 0.68 0 0 Z " fill="#10110E" transform="translate(580,1015)"/>
<path d="M0 0 C1.485 0.99 1.485 0.99 3 2 C2.67 3.65 2.34 5.3 2 7 C1.01 6.34 0.02 5.68 -1 5 C-0.67 3.35 -0.34 1.7 0 0 Z " fill="#F1F3EA" transform="translate(515,976)"/>
<path d="M0 0 C0.99 0.33 1.98 0.66 3 1 C2.67 2.65 2.34 4.3 2 6 C1.34 6 0.68 6 0 6 C-1.125 2.25 -1.125 2.25 0 0 Z " fill="#F4F5F0" transform="translate(509,899)"/>
<path d="M0 0 C1.76462683 3.08809695 2 4.23312136 2 8 C1.01 8 0.02 8 -1 8 C-0.67 5.36 -0.34 2.72 0 0 Z " fill="#CECFCA" transform="translate(348,298)"/>
<path d="M0 0 C0.66 0.66 1.32 1.32 2 2 C1 5 1 5 -2 7 C-2.33 5.35 -2.66 3.7 -3 2 C-2.34 2 -1.68 2 -1 2 C-0.67 1.34 -0.34 0.68 0 0 Z " fill="#EBEBE6" transform="translate(563,239)"/>
<path d="M0 0 C1.32 0.99 2.64 1.98 4 3 C3.67 4.65 3.34 6.3 3 8 C2.01 7.67 1.02 7.34 0 7 C0 4.69 0 2.38 0 0 Z " fill="#D7D7D2" transform="translate(593,185)"/>
<path d="M0 0 C2 1 2 1 2.75 2.8125 C3.05694702 5.49828639 2.38111722 6.7252187 1 9 C0.67 9 0.34 9 0 9 C0 6.03 0 3.06 0 0 Z " fill="#F2F4E8" transform="translate(342,36)"/>
</svg>
